<?xml version="1.0" standalone="no"?>
<!DOCTYPE svg PUBLIC "-//W3C//DTD SVG 20010904//EN"
 "http://www.w3.org/TR/2001/REC-SVG-20010904/DTD/svg10.dtd">
<svg version="1.0" xmlns="http://www.w3.org/2000/svg"
 width="1024.000000pt" height="1024.000000pt" viewBox="0 0 1024.000000 1024.000000"
 preserveAspectRatio="xMidYMid meet">
<metadata>
Created by potrace 1.11, written by Peter Selinger 2001-2013
</metadata>
<g transform="translate(0.000000,1024.000000) scale(0.100000,-0.100000)"
fill="#000000" stroke="none">
<path d="M5668 10112 c-20 -2 -30 -11 -34 -28 -7 -26 9 -54 29 -50 62 13 86
27 87 48 0 14 -55 34 -82 30z"/>
<path d="M6175 10064 c-134 -20 -214 -33 -235 -39 -8 -2 -31 -7 -50 -10 -19
-3 -91 -19 -160 -35 -69 -16 -152 -34 -185 -39 -33 -6 -72 -13 -86 -16 -68
-13 -159 -48 -209 -80 -128 -84 -227 -119 -543 -190 -295 -66 -393 -102 -473
-173 -40 -36 -47 -58 -28 -88 23 -35 59 -30 128 16 33 22 98 54 145 71 84 30
388 106 626 155 92 19 133 33 177 60 47 28 73 37 142 44 46 6 106 20 133 31
51 23 147 58 176 65 47 11 65 15 102 20 86 12 170 36 292 83 71 27 151 54 180
61 56 13 76 38 52 66 -14 17 -60 17 -184 -2z"/>
<path d="M5325 10044 c-33 -8 -89 -29 -125 -47 -70 -35 -84 -58 -59 -103 20
-38 65 -40 139 -6 125 57 161 71 198 78 58 10 76 36 53 73 -12 19 -132 22
-206 5z"/>
<path d="M6713 9950 c-42 -17 -39 -92 4 -102 10 -2 62 -3 116 -3 75 1 101 4
113 17 26 26 2 55 -59 72 -70 20 -147 27 -174 16z"/>
<path d="M4956 9919 c-59 -20 -85 -25 -103 -18 -63 24 -167 -1 -240 -57 -43
-33 -67 -78 -54 -102 28 -52 72 -59 151 -21 41 19 82 30 124 33 78 5 109 21
186 92 48 46 58 59 50 74 -15 29 -31 29 -114 -1z"/>
<path d="M6482 9884 c-31 -14 -193 -57 -257 -69 -16 -3 -43 -8 -60 -11 -16 -3
-111 -19 -210 -35 -99 -16 -191 -32 -205 -34 -14 -2 -43 -7 -65 -10 -22 -4
-47 -8 -55 -10 -8 -2 -35 -7 -60 -10 -105 -14 -297 -70 -415 -120 -91 -39
-211 -79 -395 -131 -349 -99 -457 -138 -615 -222 -151 -80 -200 -129 -162
-161 32 -26 162 15 310 96 135 75 184 93 352 129 88 19 211 48 273 65 107 29
153 44 394 133 53 19 182 56 285 81 103 24 249 63 323 85 74 22 146 42 160 44
243 43 478 111 481 140 3 22 -3 41 -14 48 -16 10 -26 9 -65 -8z"/>
<path d="M6860 9793 c-30 -8 -102 -29 -160 -48 -58 -19 -152 -46 -209 -60 -57
-14 -185 -52 -285 -85 -231 -75 -310 -95 -496 -125 -19 -3 -73 -13 -120 -21
-47 -9 -96 -18 -110 -20 -79 -13 -167 -34 -455 -106 -366 -91 -505 -132 -649
-189 -103 -41 -155 -59 -286 -99 -106 -32 -128 -44 -382 -213 -204 -135 -228
-154 -228 -179 0 -32 24 -58 53 -58 12 0 92 46 178 103 200 131 250 156 357
174 61 10 114 27 177 58 170 83 298 127 650 224 121 33 285 79 365 101 339 95
627 171 650 172 24 0 267 -6 630 -17 96 -3 186 -7 200 -10 38 -8 245 -7 335 1
104 9 224 10 305 1 67 -7 412 -120 485 -159 22 -11 51 -27 64 -34 24 -12 60
-4 62 14 0 4 2 15 4 25 6 30 -119 104 -245 145 -138 45 -458 134 -529 146 -69
13 -204 13 -316 1 -60 -7 -242 -8 -253 -2 -4 3 -34 8 -67 12 -63 7 -108 23
-70 25 11 1 29 3 40 5 39 8 233 28 370 40 105 9 155 14 210 25 28 5 67 12 87
15 30 5 39 11 44 32 6 22 1 32 -27 55 -58 49 -130 69 -233 67 -50 -1 -116 -8
-146 -16z"/>
<path d="M4488 9763 c-20 -5 -34 -44 -24 -68 7 -20 62 -20 70 1 17 43 -6 76
-46 67z"/>
<path d="M7418 9659 c-45 -26 5 -84 51 -60 12 7 21 21 21 35 0 33 -37 46 -72
25z"/>
<path d="M7529 9564 c-32 -39 47 -97 87 -63 19 16 18 35 -6 59 -24 24 -63 26
-81 4z"/>
<path d="M6018 9335 c-2 -1 -30 -5 -63 -9 -81 -8 -147 -20 -285 -51 -63 -14
-330 -83 -495 -128 -111 -30 -291 -76 -400 -101 -372 -87 -406 -97 -585 -183
-63 -31 -167 -78 -230 -105 -208 -89 -301 -146 -414 -251 -23 -21 -84 -63
-136 -94 -176 -103 -253 -163 -271 -210 -17 -44 25 -103 73 -103 6 0 41 29 79
64 37 36 107 88 156 118 48 29 142 90 208 134 131 89 268 161 530 279 94 42
184 83 200 91 149 68 581 202 805 249 8 2 96 22 195 45 99 23 187 43 195 45
151 35 291 58 420 70 30 3 228 8 440 11 212 3 396 6 410 7 77 1 217 -7 292
-18 110 -17 183 -38 279 -81 41 -18 100 -36 130 -39 235 -27 330 -51 442 -116
38 -21 75 -39 83 -39 48 0 9 96 -65 162 -88 78 -223 124 -370 126 -104 1 -127
6 -221 48 -149 65 -183 68 -705 70 -258 2 -521 5 -582 7 -62 2 -114 3 -115 2z"/>
<path d="M6299 9156 c-2 -2 -40 -7 -85 -10 -44 -4 -91 -8 -104 -11 -12 -2 -46
-7 -74 -10 -28 -2 -62 -7 -76 -9 -14 -3 -43 -7 -65 -11 -22 -3 -65 -10 -95
-15 -30 -5 -72 -12 -94 -16 -43 -6 -40 -6 -146 -29 -41 -9 -86 -19 -100 -21
-14 -3 -33 -7 -42 -10 -9 -3 -25 -6 -35 -8 -50 -10 -303 -83 -428 -123 -215
-70 -310 -109 -386 -158 -114 -74 -146 -86 -235 -95 -77 -7 -88 -11 -165 -60
-108 -69 -253 -141 -464 -230 -199 -85 -276 -122 -295 -145 -7 -9 -48 -40 -91
-71 -43 -30 -97 -75 -121 -100 -51 -54 -98 -83 -210 -131 -90 -37 -102 -48
-87 -75 13 -24 34 -23 110 7 83 33 128 57 217 118 40 27 130 75 200 107 70 31
145 68 167 82 22 13 98 44 169 67 178 58 233 85 366 181 144 102 159 110 225
115 47 4 52 2 48 -13 -9 -36 -473 -278 -683 -357 -143 -54 -216 -91 -280 -145
-57 -46 -88 -63 -198 -101 -103 -37 -112 -43 -222 -149 -47 -45 -114 -104
-150 -131 -74 -57 -205 -125 -255 -135 -64 -12 -30 -47 45 -47 67 0 142 38
300 153 147 107 220 147 286 156 118 15 144 23 209 62 33 20 83 52 110 72 67
47 130 80 250 128 102 41 467 223 587 293 36 21 80 51 97 65 23 19 36 24 53
18 13 -5 28 -8 33 -9 15 -2 116 37 330 125 322 133 465 174 665 190 58 4 118
13 133 19 36 14 42 14 30 -1 -10 -15 -10 -23 1 -57 8 -23 10 -23 105 -17 53 4
116 9 141 12 58 6 503 6 555 0 22 -2 73 -7 113 -11 41 -4 82 -8 91 -10 10 -2
42 -6 72 -10 30 -3 61 -8 69 -10 8 -2 29 -7 45 -10 183 -32 410 -101 578 -177
282 -126 356 -150 522 -163 148 -11 192 -18 251 -36 72 -22 135 -65 166 -114
28 -43 58 -47 58 -7 0 61 -22 107 -75 159 -65 63 -121 83 -405 142 -231 47
-299 67 -445 131 -240 104 -527 183 -785 216 -25 3 -56 7 -70 10 -147 25 -768
24 -901 -1 -34 -7 -20 3 52 40 121 61 254 65 530 15 63 -11 157 -22 209 -25
52 -2 106 -7 121 -9 14 -3 61 -8 105 -10 43 -3 102 -12 129 -21 33 -11 97 -18
190 -20 176 -5 253 -17 385 -61 58 -19 177 -53 265 -76 163 -41 269 -82 347
-136 76 -52 145 -74 174 -54 22 14 26 50 7 69 -10 10 -83 44 -163 75 -436 171
-533 210 -620 251 -150 70 -202 81 -415 92 -66 4 -131 8 -145 11 -14 2 -59 6
-100 10 -41 3 -86 8 -100 11 -30 6 -41 6 -149 1 -68 -4 -199 9 -266 26 -5 2
-31 6 -57 11 -27 4 -48 11 -48 16 0 5 6 6 13 3 7 -2 29 6 49 19 32 22 44 24
129 22 52 -1 105 -5 119 -9 14 -3 36 -8 50 -10 14 -3 59 -12 100 -21 86 -19
221 -26 265 -13 35 9 180 11 245 3 73 -10 278 -53 380 -81 52 -14 102 -27 110
-29 81 -16 230 -80 360 -155 152 -87 160 -90 196 -75 19 8 33 11 33 7 -3 -19
2 -30 16 -36 24 -9 45 4 45 29 0 27 -22 48 -42 40 -12 -5 -15 1 -15 20 0 34
-13 46 -153 140 -192 130 -240 149 -511 200 -129 24 -268 51 -309 59 -41 8
-86 17 -100 20 -14 3 -52 10 -84 17 -48 10 -76 10 -150 -1 -133 -20 -179 -20
-263 2 -84 21 -196 26 -320 14 -47 -4 -83 -4 -83 1 0 10 -55 45 -61 39z m-285
-207 c-2 -4 -21 -10 -41 -13 -60 -11 -379 -83 -485 -110 -102 -26 -143 -43
-193 -81 -60 -45 -96 -57 -177 -60 -95 -4 -160 -18 -253 -57 -152 -63 -198
-78 -246 -80 -27 0 -52 2 -55 4 -8 9 62 57 143 98 147 74 301 122 428 135 150
14 153 15 270 67 114 51 255 87 370 95 50 3 91 6 92 7 7 5 150 0 147 -5z m233
5 c-3 -3 -12 -4 -19 -1 -8 3 -5 6 6 6 11 1 17 -2 13 -5z"/>
<path d="M3876 9074 c-30 -31 -33 -49 -9 -58 36 -14 93 55 61 75 -19 13 -23
12 -52 -17z"/>
<path d="M3745 9030 c-3 -5 -1 -19 6 -31 10 -19 12 -20 26 -6 9 9 13 23 10 31
-7 18 -32 21 -42 6z"/>
<path d="M5878 8595 c-2 -2 -66 -5 -143 -6 -177 -3 -324 -22 -445 -55 -243
-68 -445 -142 -639 -236 -209 -101 -234 -111 -476 -196 -189 -67 -335 -125
-394 -157 -14 -7 -78 -42 -141 -76 -63 -34 -200 -113 -305 -174 -104 -61 -226
-131 -270 -155 -226 -123 -403 -233 -460 -286 -30 -27 -27 -57 7 -86 30 -26
57 -22 113 18 74 53 213 133 365 210 74 37 189 99 255 137 262 153 331 191
485 268 173 86 288 137 420 184 137 49 231 87 485 200 410 182 585 240 785
262 151 16 702 8 870 -12 19 -2 57 -7 84 -10 219 -25 385 -59 891 -186 393
-98 624 -179 862 -301 116 -59 135 -66 157 -57 35 16 50 54 34 87 -10 21 -52
46 -173 107 -265 133 -569 234 -981 329 -318 72 -561 119 -739 141 -27 4 -62
8 -77 11 -77 12 -231 24 -378 30 -91 3 -170 7 -177 9 -6 2 -13 2 -15 0z"/>
<path d="M5797 8414 c-1 -1 -60 -4 -132 -8 -136 -6 -165 -8 -255 -21 -47 -6
-161 -29 -195 -39 -5 -1 -30 -8 -54 -15 -147 -42 -839 -364 -1102 -513 -69
-40 -101 -52 -115 -47 -38 15 -99 9 -139 -14 -34 -19 -40 -28 -43 -58 -3 -36
-3 -36 -59 -43 -38 -4 -76 -18 -122 -46 -36 -21 -78 -42 -94 -46 -15 -3 -44
-24 -65 -47 -63 -68 -78 -78 -179 -121 -181 -77 -391 -205 -579 -352 -154
-121 -214 -175 -214 -195 0 -16 34 -49 52 -49 4 0 34 22 66 49 127 105 333
237 568 362 54 28 111 59 128 68 17 10 67 37 111 61 106 57 111 61 145 107 21
28 41 43 72 52 75 22 262 93 278 106 26 22 117 64 278 129 191 77 273 116 371
174 83 49 185 98 295 142 63 24 487 166 526 175 8 2 67 17 130 34 63 17 140
35 170 41 30 5 71 12 90 16 19 4 168 7 330 8 162 1 303 5 313 10 26 13 23 64
-5 71 -19 4 -566 13 -571 9z"/>
<path d="M8372 8408 c-15 -15 -15 -51 0 -66 16 -16 43 -15 57 2 24 28 -32 89
-57 64z"/>
<path d="M6438 8363 c-36 -9 -15 -38 48 -68 l49 -23 -160 -2 c-282 -3 -345 -7
-505 -26 -19 -2 -69 -11 -110 -19 -41 -8 -86 -17 -100 -20 -14 -3 -77 -8 -140
-11 -63 -4 -148 -15 -189 -25 -66 -17 -283 -119 -411 -193 -25 -14 -55 -26
-66 -26 -42 0 -160 -43 -284 -102 -69 -32 -183 -83 -255 -113 -127 -52 -285
-122 -415 -183 -36 -16 -126 -58 -200 -92 -178 -81 -266 -131 -359 -200 -96
-72 -149 -103 -231 -134 -97 -36 -191 -81 -230 -111 -69 -51 -320 -304 -320
-323 0 -10 11 -25 25 -32 30 -16 33 -14 185 109 140 114 238 175 338 210 114
41 161 69 307 187 124 99 145 111 445 262 398 200 554 272 585 272 14 0 25 -3
25 -7 0 -12 -93 -94 -154 -136 -89 -60 -263 -139 -435 -197 -177 -60 -214 -78
-394 -199 -73 -49 -166 -107 -207 -130 -98 -55 -223 -145 -352 -253 -168 -141
-181 -154 -168 -178 6 -11 16 -20 24 -20 7 0 55 30 107 67 478 337 764 497
1089 608 52 18 104 36 115 40 11 4 -18 -17 -65 -46 -47 -30 -150 -100 -230
-156 -163 -113 -238 -156 -528 -302 -185 -94 -335 -184 -404 -243 -14 -13 -62
-52 -105 -88 -147 -123 -163 -141 -130 -153 11 -4 202 90 235 116 6 5 12 6 12
2 0 -9 -70 -114 -81 -121 -5 -3 -9 -14 -9 -25 0 -28 42 -25 78 6 16 13 52 59
80 102 34 51 77 100 128 142 42 36 81 69 88 75 6 6 128 88 271 183 410 270
961 577 1170 651 33 12 118 38 190 58 150 42 228 72 303 120 42 27 53 39 50
57 -4 31 -31 32 -91 6 -66 -28 -155 -53 -282 -80 -150 -31 -249 -65 -355 -121
-52 -28 -99 -54 -104 -59 -6 -5 -14 -9 -20 -9 -5 0 35 31 90 70 121 85 150
113 194 187 67 113 85 131 159 153 38 11 85 20 105 20 38 0 100 28 176 80 51
35 169 75 250 85 30 4 57 8 60 10 3 2 28 6 55 9 28 4 66 10 85 13 61 9 213 50
255 69 22 10 45 19 50 20 214 46 221 47 582 50 348 2 352 2 410 -21 32 -13
150 -44 261 -69 223 -50 273 -69 407 -155 98 -64 167 -101 186 -101 15 0 196
-105 294 -171 39 -25 106 -77 150 -115 129 -111 166 -140 235 -179 36 -21 75
-47 87 -57 48 -44 85 12 43 65 -20 25 -173 157 -309 267 -31 25 -108 79 -171
120 -118 76 -284 192 -308 215 -8 7 -10 15 -5 18 12 7 131 -26 193 -55 53 -24
417 -263 446 -293 35 -35 137 -107 174 -124 41 -18 97 -23 93 -8 -1 4 -24 36
-52 71 -38 49 -72 78 -143 121 -139 85 -162 102 -215 157 -92 98 -118 120
-165 144 -56 29 -146 50 -243 58 -111 10 -188 18 -209 22 -84 16 -173 40 -236
64 -73 27 -128 44 -180 54 -14 3 -50 10 -80 16 -30 6 -68 13 -85 16 -60 10
-178 45 -263 78 -109 42 -189 59 -234 49z"/>
<path d="M3040 8150 c-37 -37 -20 -93 32 -105 36 -9 79 31 71 66 -14 57 -65
77 -103 39z"/>
<path d="M6117 8074 c-1 -1 -25 -4 -53 -8 -154 -18 -573 -113 -834 -188 -58
-16 -112 -31 -120 -33 -8 -2 -60 -17 -115 -35 -262 -84 -283 -94 -271 -126 6
-14 16 -16 79 -10 96 9 320 61 528 125 300 91 459 131 574 147 28 3 59 8 70
10 96 19 495 26 645 12 462 -44 820 -196 1255 -532 94 -73 275 -227 360 -307
28 -26 70 -66 95 -89 25 -23 118 -113 208 -199 90 -86 174 -160 187 -165 38
-15 75 7 75 44 0 26 -22 52 -148 178 -130 129 -248 240 -347 327 -187 165
-482 381 -667 489 -291 170 -672 320 -863 341 -56 6 -653 23 -658 19z"/>
<path d="M5780 7866 c-87 -27 -141 -48 -264 -106 -74 -35 -102 -43 -163 -46
-94 -4 -151 -30 -223 -98 -70 -67 -174 -135 -260 -170 -36 -15 -74 -31 -85
-36 -11 -5 -78 -26 -150 -46 -146 -40 -207 -68 -333 -153 -105 -70 -147 -92
-261 -136 -148 -56 -258 -117 -496 -276 -349 -231 -397 -271 -814 -675 -91
-89 -197 -190 -236 -225 -122 -112 -124 -115 -118 -138 3 -12 16 -24 29 -27
48 -12 353 242 599 499 157 165 226 220 412 331 61 36 140 92 175 124 168 153
591 373 1208 629 113 47 259 113 325 146 66 34 126 61 133 60 6 0 38 -1 70 -2
l57 -2 -50 -45 c-75 -68 -117 -88 -265 -130 -159 -44 -294 -96 -324 -122 -17
-16 -274 -113 -336 -127 -28 -7 -157 -63 -206 -90 -68 -38 -152 -99 -267 -194
-120 -99 -181 -141 -317 -215 -175 -97 -316 -198 -540 -385 -69 -58 -127 -108
-130 -111 -3 -4 -52 -46 -110 -94 -58 -48 -129 -109 -159 -134 -29 -25 -70
-54 -90 -65 -127 -67 -126 -66 -204 -164 -59 -74 -133 -133 -248 -197 -90 -49
-119 -78 -119 -116 0 -58 41 -51 179 31 106 64 236 164 319 246 46 45 76 66
115 79 44 14 70 35 172 139 208 210 379 365 495 445 33 23 32 22 -15 -36 -28
-33 -63 -78 -80 -99 -86 -110 -140 -167 -244 -256 -194 -164 -471 -442 -731
-734 -30 -33 -59 -65 -64 -71 -20 -21 -132 -148 -185 -208 -50 -58 -63 -86
-39 -86 16 0 98 53 189 122 85 63 81 60 164 138 57 53 58 54 29 14 -47 -67
-114 -144 -192 -221 -45 -44 -72 -79 -70 -89 5 -28 54 -59 77 -48 10 5 58 59
107 119 48 61 131 160 184 220 111 126 360 383 360 372 0 -14 -51 -100 -95
-162 -24 -33 -93 -118 -155 -190 -115 -133 -185 -226 -214 -283 -15 -28 -15
-33 -2 -38 8 -3 31 6 50 21 34 26 50 43 176 195 34 41 85 100 114 130 99 105
152 181 242 346 65 122 135 218 191 264 30 25 96 86 146 135 50 50 86 83 80
75 -6 -8 -18 -38 -27 -66 -16 -50 -38 -76 -152 -181 -17 -15 -53 -57 -80 -93
-26 -36 -61 -78 -76 -95 -37 -40 -43 -61 -24 -90 30 -46 65 -34 136 45 85 96
182 212 245 295 79 105 94 119 175 170 105 66 140 101 140 141 0 61 -41 68
-139 21 -27 -14 -67 -35 -88 -48 -33 -20 -36 -20 -23 -4 14 18 33 36 109 103
14 13 69 48 121 79 52 31 151 91 220 134 73 45 150 84 184 94 71 20 156 61
248 121 98 63 116 71 221 98 57 15 131 44 188 75 90 48 197 84 284 96 22 3 51
8 65 10 14 3 61 7 105 11 165 13 173 11 70 -20 -54 -16 -392 -133 -535 -185
-232 -84 -601 -257 -780 -365 -122 -75 -220 -144 -220 -157 0 -18 30 -21 63
-6 17 8 50 23 72 32 57 24 267 95 281 95 18 0 -42 -71 -101 -120 -17 -14 -56
-58 -88 -97 -32 -40 -86 -94 -122 -120 -71 -53 -91 -83 -75 -113 12 -23 50
-35 80 -25 41 13 100 77 152 164 60 99 142 191 171 191 10 0 36 13 56 29 49
39 130 83 228 125 81 35 82 35 89 13 8 -26 10 -25 -172 -130 -120 -70 -156
-98 -253 -192 -233 -227 -288 -279 -376 -350 -198 -161 -248 -228 -405 -540
-123 -245 -145 -294 -192 -420 -99 -265 -117 -486 -56 -684 58 -189 174 -292
383 -337 47 -11 136 -4 217 15 48 11 119 23 158 26 40 3 108 14 153 25 45 10
105 21 132 24 28 3 68 10 90 15 38 10 63 7 34 -4 -8 -2 -56 -20 -107 -40 -86
-32 -173 -58 -233 -69 -13 -2 -71 -5 -128 -5 l-104 -1 24 -26 c36 -39 86 -55
169 -57 218 -4 439 64 595 181 48 37 107 80 129 96 l41 29 -35 -35 c-19 -20
-78 -79 -130 -132 -167 -171 -248 -209 -440 -207 -209 2 -262 10 -390 57 -105
39 -200 64 -297 77 -76 11 -226 141 -280 243 -51 95 -63 161 -59 304 5 131 5
134 37 270 83 358 253 724 469 1011 65 86 93 119 187 218 69 73 77 101 38 127
-23 15 -27 15 -50 0 -63 -41 -281 -260 -350 -351 -50 -65 -129 -220 -140 -272
-7 -34 -25 -55 -25 -29 0 21 -37 39 -71 34 l-28 -4 21 35 c81 135 129 187 514
562 127 123 300 306 317 336 10 16 -14 53 -34 53 -46 0 -163 -102 -335 -290
-22 -25 -72 -72 -110 -104 -92 -78 -127 -116 -235 -249 -50 -62 -111 -133
-135 -159 l-45 -47 -26 25 c-16 15 -38 24 -58 24 -52 0 -87 -48 -215 -292 -49
-95 -73 -128 -121 -172 -68 -61 -80 -91 -44 -108 20 -9 32 -6 77 23 77 49 111
88 173 200 55 98 73 122 55 75 -25 -67 -80 -159 -202 -341 -156 -232 -238
-374 -289 -500 -51 -128 -66 -190 -50 -209 20 -24 50 -19 67 12 123 225 248
437 422 717 116 187 216 347 221 355 13 18 -31 -88 -96 -235 -37 -83 -78 -149
-165 -269 -186 -255 -254 -393 -279 -569 -15 -101 -9 -120 39 -125 39 -4 47
12 55 102 7 79 35 163 81 244 46 81 88 143 94 138 2 -3 -8 -40 -23 -83 -57
-165 -74 -249 -71 -341 5 -128 39 -192 92 -172 29 11 36 35 28 100 -14 111
-10 154 36 349 16 69 32 149 36 176 3 28 8 59 10 70 2 10 6 35 9 55 10 67 13
76 58 171 24 52 76 137 116 189 39 52 79 114 88 137 10 24 21 43 25 43 13 0
-60 -194 -137 -368 -72 -162 -128 -316 -139 -377 -3 -16 -9 -50 -14 -75 -16
-88 -5 -242 24 -341 62 -212 216 -365 474 -469 98 -40 39 -29 -112 21 -202 66
-287 120 -354 226 -39 59 -64 72 -99 49 -73 -48 39 -203 200 -276 107 -49 408
-158 471 -170 40 -8 64 -18 73 -32 13 -21 13 -21 -90 -3 -80 14 -265 67 -331
94 -160 67 -250 139 -360 286 -68 91 -79 100 -109 84 -18 -9 -21 -17 -16 -51
13 -95 106 -223 220 -300 109 -74 327 -160 458 -182 19 -3 73 -12 121 -21 47
-8 127 -18 176 -21 80 -6 92 -4 109 13 16 16 31 19 79 17 151 -6 262 -6 294 0
94 19 334 104 450 159 159 76 199 109 495 418 60 63 141 134 201 176 55 39
108 82 118 95 15 20 15 19 -1 -11 -10 -19 -95 -111 -189 -205 -94 -94 -214
-225 -266 -291 -113 -143 -163 -189 -279 -255 -198 -114 -383 -178 -516 -180
-67 0 -100 -82 -48 -116 20 -13 39 -15 98 -10 39 4 79 8 87 10 283 55 501 188
780 475 81 83 320 337 358 380 127 142 224 376 224 540 1 83 1 84 19 63 38
-47 37 -212 -2 -337 -46 -148 -116 -257 -244 -377 -42 -40 -115 -129 -179
-218 -142 -199 -201 -256 -385 -370 -270 -167 -587 -279 -881 -310 -90 -9
-360 -7 -377 3 -4 3 -32 8 -62 11 -95 11 -88 23 14 24 172 3 225 13 225 45 -1
50 0 50 -287 52 -292 2 -357 11 -472 69 -27 14 -87 39 -132 56 -119 43 -129
52 -128 103 l2 42 103 -51 c94 -46 253 -104 329 -119 17 -3 41 -8 55 -11 14
-3 120 -7 235 -9 252 -5 299 -10 376 -35 73 -25 91 -25 113 -1 77 85 -142 146
-414 116 -72 -8 -192 -6 -246 4 -105 20 -318 118 -442 204 -95 65 -172 151
-216 240 -34 69 -66 188 -66 246 0 32 -27 61 -57 61 -46 0 -55 -48 -33 -186
21 -137 64 -247 129 -328 17 -21 31 -40 31 -43 0 -8 -56 26 -83 51 -33 31
-107 163 -107 192 0 11 -9 46 -19 76 -11 32 -22 98 -25 154 -6 101 -12 118
-42 112 -24 -4 -31 -37 -29 -144 2 -90 16 -155 40 -184 6 -8 20 -44 30 -80 24
-86 69 -184 98 -212 13 -13 44 -36 69 -52 40 -25 48 -36 58 -78 12 -49 27 -63
71 -71 109 -20 170 -45 271 -111 98 -64 125 -76 188 -82 25 -3 54 -6 65 -8 11
-2 54 -7 96 -11 l76 -7 -23 -23 c-12 -12 -21 -31 -19 -41 2 -11 4 -24 4 -30 3
-34 190 -62 411 -61 212 0 431 29 605 81 6 1 30 8 55 15 78 22 252 93 340 139
183 95 308 201 446 377 88 112 193 233 300 345 213 222 281 376 277 625 -2
161 -39 230 -176 331 -76 56 -167 85 -272 86 -168 1 -326 -64 -670 -271 -285
-173 -404 -231 -524 -257 -101 -21 -288 -29 -350 -14 -29 7 -50 14 -48 16 2 3
24 7 48 9 317 33 577 154 819 382 181 170 434 299 690 353 83 17 237 20 306 5
138 -30 254 -115 317 -232 55 -103 87 -308 66 -428 -5 -31 -7 -22 -7 40 0 130
-26 217 -90 310 -49 70 -69 90 -140 141 -173 126 -332 152 -527 86 -104 -35
-493 -232 -507 -256 -16 -28 30 -37 105 -21 69 14 84 21 287 126 69 36 147 70
175 76 104 24 238 -5 355 -75 213 -128 251 -366 115 -722 -79 -208 -126 -303
-176 -355 -38 -40 -51 -61 -60 -104 -12 -57 -37 -91 -67 -91 -23 0 -97 -68
-148 -135 -81 -108 -215 -225 -257 -225 -8 0 -177 -102 -328 -198 -110 -70
-198 -112 -319 -152 -87 -29 -96 -32 -235 -56 -77 -13 -432 -14 -495 -1 -14 3
-43 8 -65 11 -326 48 -882 258 -1137 428 -110 74 -216 177 -258 252 -18 31
-36 56 -41 56 -12 0 -22 -62 -16 -102 13 -98 107 -213 246 -303 232 -150 768
-350 1101 -411 175 -32 250 -39 425 -39 175 1 258 8 375 34 47 11 112 24 145
31 145 28 186 48 367 171 46 32 164 98 263 147 102 51 216 117 262 152 260
193 516 614 618 1015 l15 60 -6 -49 c-16 -138 -163 -493 -288 -693 -145 -234
-345 -453 -571 -622 -132 -99 -391 -206 -697 -287 -166 -43 -278 -86 -278
-104 0 -25 225 -3 345 34 27 8 51 13 54 11 2 -3 2 -5 0 -5 -2 0 -29 -9 -59
-21 -108 -40 -206 -68 -295 -84 -123 -23 -139 -32 -143 -78 -3 -31 1 -39 20
-46 13 -5 25 -7 28 -6 3 2 25 6 50 9 87 12 282 66 396 111 385 150 735 391
973 670 80 93 179 223 200 264 7 13 36 49 65 80 77 84 111 138 141 226 37 107
62 151 97 166 16 6 31 9 34 7 6 -7 -70 -224 -106 -303 -15 -33 -36 -69 -47
-80 -10 -11 -63 -83 -117 -160 -165 -234 -218 -291 -391 -415 -141 -101 -245
-190 -251 -216 -8 -29 19 -64 49 -64 10 0 45 22 76 48 31 27 126 100 211 164
163 120 254 203 336 303 27 33 51 62 55 65 6 6 90 136 130 202 15 24 30 54 34
68 4 14 11 27 15 30 10 8 66 117 96 190 14 36 40 92 57 125 28 57 30 67 33
196 1 74 10 178 19 230 17 95 22 225 10 289 -25 141 -63 259 -87 273 -11 7
-30 32 -42 57 -13 25 -45 88 -72 140 -27 52 -55 111 -63 130 -38 99 -74 151
-121 175 -22 11 -40 16 -119 31 -7 1 -34 7 -60 13 -25 6 -59 14 -76 17 -66 14
-272 13 -321 -2 -76 -23 -335 -94 -342 -94 -4 0 29 15 73 33 44 18 118 53 165
78 l85 44 120 -1 c69 -1 154 -8 200 -18 116 -24 126 -26 165 -32 210 -34 253
-50 359 -129 63 -48 95 -89 161 -210 18 -33 41 -73 50 -90 21 -37 160 -303
193 -370 51 -101 65 -144 103 -325 4 -19 8 -185 8 -369 1 -305 2 -335 18 -345
29 -18 45 11 53 94 4 41 9 91 11 110 10 101 10 323 -1 395 -20 127 -30 172
-100 435 -20 78 -35 149 -34 170 0 29 32 -30 104 -195 110 -252 156 -462 150
-680 -4 -138 -5 -144 -34 -248 -12 -43 -24 -86 -26 -95 -89 -401 -142 -588
-196 -694 -23 -45 -13 -84 25 -94 60 -15 76 22 185 426 21 80 55 198 75 263
44 144 50 187 49 347 0 116 -11 298 -18 310 -1 3 -6 28 -9 55 -4 28 -9 64 -12
80 -15 95 -29 305 -20 305 3 0 15 -19 27 -42 19 -37 21 -53 16 -120 -6 -70 -4
-81 13 -98 11 -11 24 -20 29 -20 5 0 12 -12 16 -27 9 -39 33 -73 50 -73 28 0
42 65 46 210 1 62 3 68 8 35 4 -22 14 -51 24 -65 9 -14 19 -43 22 -65 4 -22 8
-51 10 -65 3 -14 7 -43 11 -65 6 -43 18 -56 42 -47 12 4 13 19 7 81 -8 84 -9
121 -4 196 4 69 -9 188 -27 238 -17 47 -69 143 -92 170 -32 36 -92 8 -92 -44
-1 -15 -24 21 -65 101 -35 69 -80 143 -98 165 -19 22 -38 51 -42 65 -15 48
-93 156 -160 220 -86 83 -78 77 -160 137 -246 180 -492 286 -790 339 -91 16
-318 21 -395 9 -25 -4 -58 -9 -75 -11 -103 -13 -187 -40 -265 -84 -47 -26
-116 -64 -155 -85 -280 -151 -353 -205 -591 -440 -176 -174 -257 -278 -321
-410 -35 -71 -21 -12 22 92 67 166 169 317 292 434 88 83 131 112 273 185 63
33 196 114 296 181 l181 121 124 26 c154 31 204 37 349 40 261 7 480 -45 747
-176 339 -165 523 -341 745 -711 38 -63 79 -107 100 -107 5 0 20 11 34 25 32
32 27 49 -36 129 -26 34 -85 117 -131 186 -163 245 -247 337 -402 441 -211
141 -572 283 -807 318 -69 10 -411 8 -470 -3 -19 -4 -62 -12 -95 -17 -123 -21
-371 -81 -392 -95 -13 -8 -23 -20 -23 -27 -1 -6 -40 -30 -88 -52 -48 -22 -123
-64 -167 -93 -44 -29 -64 -39 -45 -22 38 33 205 150 214 150 3 0 38 22 78 48
40 27 100 60 134 75 66 29 223 73 294 82 152 20 204 23 375 21 l190 -2 128
-42 c92 -30 151 -43 210 -47 196 -13 209 -17 312 -95 39 -29 102 -74 140 -98
39 -25 73 -51 78 -58 4 -7 13 -19 20 -26 51 -54 120 -145 183 -240 40 -62 77
-118 81 -123 11 -14 136 -159 144 -165 3 -3 27 -32 54 -65 57 -71 114 -188
148 -307 14 -48 52 -138 84 -200 32 -62 66 -133 76 -157 l17 -44 19 24 c16 19
19 36 17 89 -2 36 -7 73 -11 83 -7 17 -6 18 13 6 30 -19 42 -60 42 -144 0 -43
5 -78 13 -89 22 -30 50 -15 68 34 l17 45 7 -30 c4 -16 11 -34 14 -40 3 -5 26
-82 51 -170 43 -148 48 -160 70 -163 64 -6 66 31 16 212 -126 445 -310 824
-560 1154 -193 255 -391 472 -548 599 -38 31 -68 59 -68 63 0 15 51 21 69 8
10 -7 36 -36 58 -63 39 -49 106 -112 268 -250 272 -232 339 -337 584 -918 163
-387 277 -614 321 -637 23 -12 54 0 63 25 4 8 -20 65 -52 127 -33 62 -87 178
-120 258 -67 157 -89 202 -161 325 -59 102 -83 155 -105 230 -75 253 -126 341
-299 510 -51 50 -119 124 -152 165 -32 41 -64 81 -71 90 -7 8 -26 33 -43 55
-17 22 -55 64 -83 94 l-52 53 38 -15 c119 -50 202 -133 338 -334 51 -76 129
-185 174 -243 48 -62 105 -152 139 -220 84 -165 139 -261 215 -373 36 -54 73
-111 82 -125 9 -15 45 -74 81 -132 35 -58 79 -145 97 -195 19 -49 62 -160 96
-245 64 -158 118 -316 130 -382 9 -45 33 -69 66 -63 25 5 49 30 49 51 0 39
-141 411 -235 619 -14 33 -22 56 -17 50 19 -21 152 -217 168 -247 40 -77 172
-455 226 -643 34 -122 41 -135 72 -135 45 0 58 38 32 89 -8 15 -33 99 -56 186
-42 163 -66 219 -187 437 -47 84 -68 137 -98 245 -46 167 -80 246 -128 295
-65 66 -96 61 -97 -17 0 -40 -1 -39 -51 55 -28 52 -107 181 -176 285 -377 576
-388 593 -462 728 -31 56 -31 58 -9 46 38 -20 141 -129 188 -198 24 -36 87
-146 140 -245 96 -179 246 -419 278 -443 24 -19 56 -16 77 7 17 19 18 26 6 68
-17 65 -49 116 -143 229 -99 120 -107 132 -202 316 -94 184 -121 223 -216 317
-78 78 -119 126 -186 220 l-39 55 61 -43 c90 -63 136 -113 242 -262 90 -126
182 -230 243 -276 34 -25 98 -110 117 -154 8 -19 28 -84 43 -145 47 -178 80
-235 216 -372 97 -97 114 -119 97 -121 -12 -2 -32 -14 -45 -28 -21 -23 -22
-28 -12 -67 7 -24 57 -142 113 -263 55 -120 105 -228 110 -239 16 -37 52 -140
56 -163 12 -64 59 -191 83 -224 46 -63 111 -128 127 -128 14 0 15 9 11 53 -12
114 -47 201 -196 487 -51 99 -107 249 -116 316 -3 22 -8 57 -11 79 l-6 40 25
-35 c29 -42 56 -91 138 -248 34 -64 65 -121 70 -126 13 -15 59 3 59 23 0 21
-42 122 -112 271 -25 53 -53 132 -63 177 -23 109 -48 149 -125 205 -156 112
-199 166 -330 418 -49 93 -117 214 -151 267 -62 96 -182 264 -210 293 -8 8
-32 38 -54 65 -22 28 -94 104 -160 171 l-120 121 85 -36 c179 -74 234 -125
333 -308 54 -100 227 -363 280 -428 105 -127 544 -778 644 -955 54 -97 109
-215 144 -315 10 -28 21 -41 37 -43 53 -8 34 87 -43 218 -30 49 -92 165 -138
258 -126 251 -232 420 -678 1087 -178 267 -287 420 -328 461 -67 68 -173 143
-361 256 -69 41 -161 100 -205 130 -97 65 -256 145 -385 193 l-95 36 85 -5
c96 -6 243 -42 347 -84 121 -49 202 -101 322 -206 64 -56 172 -149 241 -207
136 -115 259 -240 331 -334 51 -67 177 -254 213 -319 13 -22 61 -104 106 -181
45 -77 90 -153 99 -170 9 -17 58 -100 109 -185 97 -162 151 -240 218 -312 85
-92 124 -146 154 -211 36 -79 56 -84 52 -12 -4 87 -74 265 -158 405 -25 41
-22 39 39 -26 74 -80 115 -103 151 -86 35 16 40 54 15 105 -32 63 -96 159
-190 287 -47 63 -146 205 -219 315 -156 234 -259 377 -315 439 -6 6 -62 81
-124 166 -190 257 -281 378 -296 394 -8 8 -15 17 -15 21 0 10 203 -171 263
-234 84 -90 280 -339 393 -498 54 -76 120 -166 146 -199 26 -34 91 -131 144
-215 132 -211 196 -289 239 -289 50 0 42 55 -27 195 -47 94 -98 172 -183 276
-34 42 -75 103 -90 135 -15 32 -43 90 -61 128 -19 37 -34 73 -34 80 1 14 43
-34 98 -111 24 -33 78 -97 121 -142 43 -44 96 -108 117 -141 39 -61 50 -68 85
-50 47 25 23 68 -248 449 -35 49 -63 95 -63 104 0 9 11 27 25 41 20 20 23 29
15 55 -27 94 -113 204 -219 278 -168 119 -339 255 -369 295 -101 134 -242 243
-472 369 -253 138 -316 174 -407 236 -52 36 -129 81 -171 101 -71 34 -84 37
-162 36 -47 0 -132 -4 -190 -8 -103 -8 -107 -8 -195 24 -158 56 -203 68 -253
66 -69 -2 -99 -33 -74 -74 7 -11 230 -86 291 -98 14 -3 27 -7 31 -9 3 -2 62
-11 130 -20 69 -9 168 -28 220 -41 93 -25 400 -140 400 -151 0 -3 -8 -2 -17 2
-45 18 -216 59 -303 71 -14 2 -78 6 -143 8 -75 3 -144 13 -191 26 -145 40
-227 44 -421 16 -22 -3 -137 -30 -255 -60 -185 -46 -233 -55 -340 -59 -228
-10 -465 -58 -670 -137 -30 -12 -136 -50 -235 -86 -219 -78 -268 -102 -320
-152 -24 -24 -84 -61 -150 -92 -111 -53 -308 -167 -465 -269 -82 -53 -164
-130 -549 -510 -114 -112 -221 -199 -291 -235 -16 -9 170 175 336 332 55 52
137 141 184 198 160 197 238 262 480 396 124 69 199 114 282 169 51 32 97 59
104 59 8 0 28 6 46 14 18 8 55 23 82 32 59 22 106 59 106 85 0 32 -36 59 -77
59 -49 0 -130 -38 -181 -84 -22 -20 -42 -36 -46 -36 -3 0 -29 -15 -58 -34 -56
-35 -218 -119 -218 -112 0 2 24 19 52 37 29 19 102 73 163 120 201 156 264
191 470 260 72 23 195 76 275 117 80 41 168 82 195 92 68 26 257 81 261 77 2
-2 -22 -14 -54 -27 -31 -13 -113 -55 -181 -93 -68 -38 -164 -87 -214 -108 -89
-38 -227 -110 -298 -155 -28 -17 -36 -28 -32 -43 7 -28 23 -31 95 -16 69 15
103 28 262 105 75 36 124 53 160 56 28 2 62 7 76 10 14 4 72 8 130 9 80 1 126
8 195 29 65 19 120 28 200 32 114 4 279 30 415 63 25 7 56 14 70 17 30 6 50
22 50 39 0 45 -110 54 -234 20 -47 -13 -86 -22 -86 -20 0 3 -10 1 -23 -4 -23
-9 -72 -17 -172 -26 -33 -4 -100 -13 -150 -21 -195 -31 -292 -5 -174 46 98 41
210 56 461 61 101 1 232 18 255 32 22 14 22 49 -1 72 -19 19 -29 22 -62 16
-21 -4 -55 -6 -74 -5 -122 7 -142 9 -145 15 -2 3 1 6 8 7 7 0 50 8 97 17 113
23 374 28 510 10 139 -18 159 -22 174 -34 7 -6 39 -13 72 -16 32 -3 82 -8 109
-11 255 -23 613 -151 880 -314 106 -64 252 -168 258 -182 10 -26 165 -214 226
-275 34 -35 104 -98 154 -140 51 -43 94 -80 97 -83 3 -3 44 -38 92 -78 60 -51
108 -103 156 -170 84 -118 190 -289 237 -381 36 -73 56 -89 79 -65 14 13 13
21 -9 71 -157 354 -486 754 -975 1184 -357 314 -794 523 -1175 564 -96 11
-116 13 -185 24 -130 20 -166 23 -369 26 -113 1 -217 5 -230 9 -13 3 -41 6
-63 8 -22 1 -41 5 -43 8 -4 6 151 54 207 66 199 39 456 18 763 -61 195 -50
377 -130 716 -313 279 -150 426 -266 633 -496 37 -42 76 -76 86 -76 24 0 50
26 50 50 0 29 -78 136 -168 231 -143 151 -276 246 -497 356 -77 39 -182 95
-233 126 -51 32 -94 57 -96 57 -2 0 -30 16 -62 35 -32 19 -56 35 -53 35 17 0
325 -131 444 -189 246 -119 349 -190 561 -386 303 -281 602 -591 689 -715 12
-18 29 -30 43 -30 30 0 29 35 -4 136 -32 99 -67 163 -113 210 -33 34 -107 74
-135 74 -21 0 -86 61 -125 118 -39 57 -133 152 -307 310 -127 116 -185 157
-374 267 -91 53 -217 130 -280 171 -135 87 -218 131 -326 174 -44 18 -84 36
-90 41 -11 9 -191 54 -256 63 -151 23 -194 27 -458 41 -162 8 -274 16 -300 21
-14 3 -70 6 -125 9 -84 3 -112 0 -175 -19z m573 -91 c268 -4 319 -12 481 -76
100 -40 147 -66 96 -55 -248 57 -433 78 -690 78 -199 0 -349 -12 -615 -51 -33
-5 -61 -8 -63 -6 -6 5 218 83 283 98 89 21 114 23 200 19 39 -2 177 -5 308 -7z
m-983 -455 c-155 -41 -189 -48 -125 -23 61 22 217 62 245 62 14 0 -40 -18
-120 -39z m938 -289 c95 -32 162 -43 337 -56 44 -4 94 -9 110 -11 78 -12 92
-15 125 -26 19 -6 53 -20 75 -30 74 -37 383 -250 422 -291 l38 -41 -43 35
c-86 67 -108 81 -178 114 -84 39 -175 68 -298 96 -48 11 -125 37 -170 58 -44
21 -103 44 -131 51 -128 32 -336 32 -565 0 -36 -5 -96 -12 -135 -15 -38 -4
-77 -9 -87 -11 -9 -3 -19 -1 -21 4 -7 10 198 108 266 127 76 20 187 19 255 -4z
m1082 -193 c285 -155 481 -340 604 -570 22 -40 42 -75 46 -78 3 -3 21 -31 39
-63 19 -33 59 -91 90 -130 31 -40 68 -88 81 -107 l25 -35 -50 35 c-59 41 -235
214 -291 285 -21 28 -41 52 -44 55 -3 3 -55 68 -115 145 -166 213 -270 328
-369 410 -24 19 -48 35 -55 35 -6 0 -35 19 -65 43 -29 23 -61 48 -72 54 -36
24 101 -38 176 -79z m-985 -13 c17 -4 42 -14 57 -21 14 -8 67 -18 118 -24 50
-6 107 -17 127 -25 19 -8 43 -15 53 -15 24 0 248 -93 342 -142 130 -67 198
-122 313 -253 59 -68 97 -109 231 -255 38 -42 111 -125 163 -185 51 -61 104
-122 117 -137 100 -115 205 -274 300 -453 26 -49 71 -134 100 -187 29 -54 51
-98 49 -98 -2 0 -54 75 -116 168 -482 719 -848 1123 -1210 1336 -199 118 -496
212 -739 234 -142 12 -404 6 -540 -14 -190 -27 -508 -105 -595 -144 -68 -31
-546 -202 -625 -223 -173 -48 -178 -47 -105 3 106 73 222 120 461 185 93 25
225 63 294 85 151 46 304 79 445 95 110 13 302 42 360 55 22 5 69 12 105 16
36 3 66 8 68 9 6 6 199 -3 227 -10z m-502 -209 c129 -10 521 -149 744 -265
110 -58 274 -163 343 -221 34 -28 -295 135 -385 191 -112 70 -469 208 -630
244 -108 24 -194 16 -409 -39 -207 -54 -297 -74 -368 -81 -30 -3 -56 -12 -63
-21 -7 -10 -43 -21 -101 -29 -49 -8 -102 -16 -119 -19 -16 -3 -72 -12 -124
-21 -51 -9 -95 -14 -97 -13 -5 6 299 124 418 163 198 65 389 102 568 111 63 4
117 8 118 9 2 2 9 2 15 0 7 -2 47 -6 90 -9z m124 -206 c76 -12 87 -19 77 -44
-6 -16 -16 -17 -78 -12 -39 3 -111 9 -160 12 -49 3 -99 8 -110 10 -12 2 -36 7
-55 10 -19 3 -43 9 -55 14 -18 7 -17 8 14 14 89 15 258 13 367 -4z m-524 -54
c57 -57 101 -72 270 -96 75 -11 93 -14 155 -25 15 -3 115 -19 222 -36 107 -16
206 -36 220 -42 13 -7 43 -44 66 -82 47 -78 50 -85 30 -85 -7 0 -43 -16 -80
-35 -37 -19 -76 -35 -86 -35 -10 0 -53 16 -96 36 -44 20 -88 40 -99 45 -41 18
-202 60 -284 74 -197 35 -421 38 -686 10 -16 -1 -61 -6 -100 -10 -38 -3 -77
-8 -85 -10 -8 -2 -33 -7 -55 -10 -104 -14 -236 -50 -293 -80 -26 -13 -92 -56
-147 -95 -114 -83 -177 -113 -214 -105 -33 7 -147 -57 -263 -147 -71 -56 -230
-212 -278 -274 -120 -153 -198 -272 -277 -420 -44 -83 -107 -233 -117 -279 -2
-5 -8 -28 -14 -51 -41 -144 -59 -420 -33 -524 6 -25 11 -69 11 -98 0 -67 29
-124 80 -160 32 -22 39 -33 40 -59 0 -21 -5 -33 -13 -33 -13 0 -85 44 -117 72
-43 36 -89 132 -106 219 -21 109 -7 318 29 455 24 89 149 399 221 550 120 250
215 373 390 507 112 85 201 171 312 303 54 63 104 114 112 114 14 0 196 94
267 138 22 14 62 43 90 65 63 50 95 64 170 72 103 11 127 16 255 57 69 22 160
48 202 58 43 10 81 21 85 23 5 3 36 9 68 12 33 4 62 9 64 11 15 14 55 -1 84
-30z m715 8 c21 -6 22 -8 6 -25 -19 -21 -44 -15 -44 12 0 21 4 22 38 13z m152
-60 c0 -2 -12 -4 -26 -4 -14 0 -23 4 -20 9 6 8 46 4 46 -5z m1805 -78 c33 -23
178 -142 211 -174 15 -14 20 -28 16 -51 -2 -17 -8 -31 -12 -31 -22 0 -96 69
-161 150 -129 161 -125 155 -54 106z m-1567 -71 c37 -25 85 -61 107 -80 l40
-35 -65 30 c-36 17 -82 33 -102 36 -33 6 -39 11 -48 43 -18 65 -18 65 68 6z
m-926 -159 c48 -4 93 -8 100 -11 7 -2 31 -6 53 -9 66 -8 212 -54 278 -87 34
-18 76 -47 93 -66 18 -19 38 -35 46 -37 61 -8 351 -268 527 -471 121 -139 258
-321 295 -393 21 -41 47 -152 35 -152 -5 0 -20 24 -33 53 -13 28 -44 73 -67
98 -77 81 -94 102 -188 239 -116 168 -206 277 -335 406 -199 198 -363 287
-566 309 -46 5 -145 21 -185 29 -5 2 -35 10 -65 20 -136 41 -367 38 -641 -9
-165 -29 -367 -92 -479 -149 -25 -13 -70 -31 -100 -41 -64 -20 -149 -79 -235
-160 -109 -103 -150 -140 -200 -180 -27 -22 -61 -49 -74 -60 -48 -39 -116
-101 -159 -145 -51 -53 145 207 214 283 106 118 234 208 331 233 69 18 142 51
229 105 153 93 266 136 404 154 30 3 64 8 75 10 18 2 41 5 160 20 17 2 84 7
150 10 66 4 121 8 122 9 3 3 123 -2 215 -8z m-2301 -39 c-10 -9 -11 -8 -5 6 3
10 9 15 12 12 3 -3 0 -11 -7 -18z m2195 -472 c32 -5 61 -9 64 -10 9 -2 85 -17
109 -21 56 -11 223 -70 301 -107 96 -45 252 -146 323 -209 30 -28 58 -66 77
-106 33 -71 26 -74 -16 -7 -30 46 -54 57 -92 41 -30 -13 -39 -53 -19 -88 23
-40 14 -35 -28 16 -20 25 -52 82 -70 128 -50 120 -109 163 -250 184 -56 8 -69
10 -160 28 -75 14 -93 18 -155 32 -177 38 -230 43 -390 40 -191 -5 -236 -16
-390 -98 -202 -108 -314 -192 -524 -391 -205 -194 -214 -203 -294 -264 -92
-69 -140 -117 -154 -151 -33 -87 -12 -127 62 -118 95 13 148 32 251 92 61 36
213 145 234 168 6 6 33 29 60 51 28 21 52 42 55 46 20 25 228 167 285 194 101
48 270 103 385 125 162 32 399 15 505 -36 142 -67 276 -302 309 -539 6 -47
-10 -27 -19 24 -9 52 -53 160 -89 220 -51 84 -129 165 -212 220 -151 101 -299
122 -504 70 -225 -57 -378 -117 -497 -195 -32 -21 -130 -109 -218 -194 -88
-85 -187 -173 -219 -194 -105 -70 -349 -162 -477 -180 -53 -8 -57 -3 -66 77
-4 36 -2 47 9 47 8 0 53 55 100 123 162 231 330 424 453 518 17 13 36 30 44
37 40 38 177 120 336 200 99 49 211 110 248 135 76 52 180 83 313 95 98 9 242
7 320 -3z m-1477 -212 c-150 -155 -308 -377 -385 -541 -64 -137 -82 -220 -79
-367 1 -71 6 -143 10 -160 l8 -30 -23 20 c-37 32 -60 93 -60 161 0 122 78 376
166 540 97 181 152 248 257 319 45 29 98 67 117 84 54 47 50 37 -11 -26z
m-462 -283 c-90 -120 -121 -188 -131 -295 -3 -33 -20 -107 -37 -165 -35 -121
-47 -239 -30 -293 7 -19 31 -57 54 -83 139 -158 390 -208 667 -133 110 29 218
88 470 255 124 82 261 168 305 191 163 84 314 117 427 91 47 -11 48 -12 69
-77 26 -78 32 -189 14 -267 -17 -76 -23 -76 -19 -1 5 115 -39 240 -98 277 -45
28 -117 22 -204 -19 -36 -17 -71 -31 -78 -31 -45 0 -309 -174 -386 -254 -25
-26 -53 -42 -101 -56 -36 -11 -83 -31 -103 -45 -44 -30 -102 -55 -109 -48 -9
8 -45 -16 -51 -35 -5 -14 -15 -18 -45 -16 -22 1 -63 -7 -93 -18 -101 -37 -159
-47 -265 -43 -89 3 -118 9 -237 50 -138 46 -240 60 -269 37 -8 -7 -16 -6 -25
4 -17 19 -9 328 12 449 36 204 113 383 209 486 12 14 46 53 76 87 30 34 56 62
58 62 2 0 -34 -50 -80 -110z m1017 18 c-27 -18 -123 -108 -214 -199 -161 -162
-253 -235 -344 -273 -22 -9 -42 -14 -45 -11 -7 8 64 75 159 150 41 33 93 76
115 96 138 125 199 174 274 219 94 56 131 68 55 18z m2004 -296 c17 -35 26
-59 18 -53 -16 13 -61 97 -71 131 -7 24 -6 24 7 5 8 -11 29 -49 46 -83z
m-1359 -411 c74 -97 -13 -235 -206 -327 -107 -51 -136 -78 -197 -184 -52 -90
-85 -131 -118 -147 -12 -6 -66 -31 -118 -56 -52 -24 -158 -81 -235 -127 -179
-107 -279 -153 -401 -187 -87 -23 -116 -26 -242 -25 -161 2 -198 11 -139 36
21 8 40 23 44 32 5 14 16 15 77 9 142 -14 310 -15 331 -1 11 7 37 16 57 20 91
17 191 79 308 192 36 35 106 93 155 129 154 114 215 183 229 256 9 53 -16 80
-80 86 -42 4 -59 0 -115 -29 -36 -19 -122 -77 -190 -129 -112 -86 -187 -129
-222 -129 -6 0 17 15 52 33 45 22 80 51 120 97 119 136 142 155 230 191 67 27
97 46 143 91 64 63 145 121 225 162 145 73 110 -13 -49 -125 -72 -50 -79 -87
-20 -118 21 -11 32 -8 88 20 147 75 226 189 193 277 l-9 23 31 -18 c17 -10 43
-33 58 -52z m782 -48 c22 -92 16 -192 -19 -329 -18 -67 -36 -132 -40 -145 l-9
-23 -12 23 c-23 41 -22 71 3 174 36 145 51 249 49 325 -1 50 12 38 28 -25z
m-140 -99 c-5 -16 -10 -21 -10 -12 -1 18 10 51 15 45 2 -1 -1 -16 -5 -33z
m-1651 -245 c0 -4 -14 -12 -32 -20 -17 -7 -44 -26 -60 -42 -22 -24 -48 -35
-123 -53 -53 -12 -110 -25 -128 -28 -18 -3 -42 -8 -54 -10 -23 -5 -76 -11
-198 -22 -38 -3 -78 -8 -90 -11 -11 -2 -50 -6 -87 -7 -66 -4 -68 -3 -68 21 0
13 -4 32 -10 42 -7 14 -5 23 10 36 11 10 20 26 20 37 0 24 7 23 81 -12 l62
-29 209 4 c236 4 266 10 383 80 64 38 84 41 85 14z"/>
<path d="M5040 6276 c-126 -30 -311 -114 -549 -248 -112 -63 -125 -78 -94
-110 l22 -22 168 82 c161 78 363 154 448 168 66 11 277 14 321 4 22 -5 60 -12
85 -15 24 -3 60 -7 79 -9 19 -3 67 -7 105 -11 293 -24 455 -54 568 -105 54
-25 72 -25 97 0 25 25 26 72 3 92 -32 28 -249 93 -390 117 -103 18 -109 19
-169 26 -33 4 -67 9 -76 11 -9 1 -59 6 -110 10 -51 3 -104 8 -118 10 -93 12
-341 12 -390 0z"/>
<path d="M4253 5902 c-64 -33 -84 -58 -72 -89 17 -45 87 -24 143 44 55 65 15
90 -71 45z"/>
<path d="M8538 7819 c-34 -19 -21 -61 30 -101 103 -82 137 -10 40 81 -36 33
-44 36 -70 20z"/>
<path d="M8727 7263 c-13 -13 -7 -30 23 -61 28 -30 40 -36 68 -33 25 2 11 40
-25 70 -38 31 -54 37 -66 24z"/>
<path d="M8467 7253 c-16 -15 -4 -35 62 -103 64 -66 90 -78 74 -33 -7 22 -68
101 -96 126 -21 18 -30 21 -40 10z"/>
<path d="M8285 6671 c-3 -6 43 -73 102 -150 129 -169 208 -281 265 -376 57
-97 139 -219 152 -227 19 -13 52 -9 68 10 19 20 15 53 -13 105 -29 57 -202
297 -241 337 -19 19 -66 73 -105 120 -39 47 -87 100 -107 118 -46 40 -113 75
-121 63z"/>
<path d="M2487 6642 c-51 -31 -44 -91 8 -76 45 13 72 75 39 88 -19 7 -14 9
-47 -12z"/>
<path d="M2607 6546 c-34 -31 -37 -37 -27 -56 9 -17 17 -20 38 -16 35 9 74 53
70 80 -5 34 -39 31 -81 -8z"/>
<path d="M2316 6529 c-20 -35 -16 -54 13 -62 25 -6 61 33 56 61 -2 9 -4 20 -4
25 -1 4 -11 7 -24 7 -15 0 -29 -11 -41 -31z"/>
<path d="M2631 6180 c-82 -60 -101 -83 -101 -119 0 -35 33 -25 87 27 27 26 68
63 91 83 23 19 42 42 42 50 0 31 -43 16 -119 -41z"/>
<path d="M2289 5699 c-11 -11 -19 -28 -17 -37 8 -40 88 -5 88 38 0 27 -43 27
-71 -1z"/>
<path d="M1854 5181 c-27 -26 -58 -53 -70 -61 -29 -21 -53 -60 -47 -76 7 -19
34 -17 58 4 34 29 135 149 135 160 0 27 -32 16 -76 -27z"/>
<path d="M5952 5088 c-8 -8 1 -34 34 -97 182 -341 222 -432 255 -583 34 -154
28 -383 -17 -673 -18 -114 -87 -275 -146 -339 -18 -20 -22 -35 -19 -68 1 -10
-27 -78 -63 -152 l-65 -134 -214 -214 c-154 -153 -233 -224 -280 -251 -36 -22
-68 -45 -71 -53 -10 -27 17 -67 49 -69 14 -1 133 82 203 142 95 80 196 186
254 264 332 450 346 471 392 619 27 83 52 211 61 310 3 36 8 83 10 105 2 22 7
83 10 135 4 52 8 111 11 130 5 51 5 231 -1 260 -31 156 -47 207 -105 323 -58
118 -210 315 -266 345 -15 8 -24 8 -32 0z"/>
<path d="M2464 4693 c-95 -102 -394 -538 -394 -576 0 -12 32 -37 49 -37 11 0
34 23 56 58 45 66 224 310 246 332 35 37 108 128 124 157 42 72 -25 126 -81
66z"/>
<path d="M2215 4638 c-16 -18 -39 -58 -53 -88 -64 -143 -61 -140 -147 -195
-45 -29 -108 -77 -141 -107 -32 -30 -104 -92 -159 -138 -55 -46 -109 -93 -120
-104 -74 -75 -93 -126 -56 -146 37 -19 60 -12 80 28 26 51 99 148 151 200 71
72 147 124 264 182 125 62 135 73 186 202 18 45 44 99 56 118 21 30 22 37 10
55 -21 31 -41 29 -71 -7z"/>
<path d="M2022 4632 c-10 -9 -42 -48 -71 -85 -29 -38 -70 -84 -91 -103 -43
-39 -54 -68 -34 -85 35 -29 95 14 193 143 71 92 79 118 41 138 -13 7 -23 5
-38 -8z"/>
<path d="M6411 4379 c-15 -14 -18 -28 -15 -66 5 -62 24 -239 29 -278 8 -56 5
-240 -5 -300 -14 -93 -19 -110 -52 -214 -55 -172 -141 -335 -239 -451 -45 -53
-47 -67 -18 -99 24 -25 55 -21 79 12 41 54 92 147 130 235 59 137 102 222 112
222 12 0 10 -58 -3 -81 -18 -34 -16 -126 2 -145 46 -45 83 28 92 179 4 73 3
79 -19 94 -13 8 -28 12 -34 8 -12 -8 -14 17 -1 30 14 16 48 117 55 165 33 231
24 484 -21 625 -25 81 -53 100 -92 64z"/>
<path d="M1749 4310 c-43 -45 -50 -75 -19 -85 42 -13 119 59 101 94 -20 36
-42 34 -82 -9z"/>
<path d="M1895 4070 c-30 -13 -68 -49 -118 -112 -63 -79 -80 -147 -41 -162 26
-10 43 5 78 67 19 34 55 86 80 116 53 60 68 86 59 95 -9 8 -34 7 -58 -4z"/>
<path d="M2044 4047 c-33 -29 -41 -99 -11 -105 12 -3 23 9 37 40 21 46 26 88
11 88 -6 0 -22 -10 -37 -23z"/>
<path d="M2157 4012 c-24 -27 -67 -130 -61 -146 7 -19 35 -29 47 -17 14 14 67
143 67 163 0 23 -32 23 -53 0z"/>
<path d="M7379 3978 c-1 -7 -3 -24 -4 -38 -1 -14 8 -61 22 -105 31 -105 42
-155 49 -224 7 -69 34 -96 72 -73 19 13 22 117 5 197 -19 93 -61 216 -80 238
-18 20 -62 23 -64 5z"/>
<path d="M8476 3934 c-19 -18 -19 -16 -5 -74 11 -48 32 -78 64 -90 24 -9 55
14 55 42 0 38 -65 138 -90 138 -5 0 -16 -7 -24 -16z"/>
<path d="M6932 3928 c-5 -7 -13 -35 -17 -63 -4 -27 -8 -60 -10 -71 -22 -146
-16 -174 39 -174 44 0 54 23 62 153 6 85 4 108 -10 135 -17 33 -45 42 -64 20z"/>
<path d="M7240 3925 c-9 -11 -6 -42 13 -132 14 -65 28 -137 31 -160 8 -61 15
-111 22 -163 3 -25 7 -126 9 -225 2 -109 7 -181 13 -183 11 -3 18 14 26 63 3
17 8 46 11 65 14 78 16 111 20 265 5 200 -15 327 -70 435 -24 48 -53 61 -75
35z"/>
<path d="M7720 3915 c-24 -28 -14 -89 28 -181 67 -146 99 -288 79 -347 -7 -22
-6 -32 6 -44 14 -14 18 -13 41 10 25 25 28 36 28 97 1 27 -10 116 -17 140 -2
8 -7 51 -10 95 -10 133 -26 184 -70 229 -21 20 -69 21 -85 1z"/>
<path d="M7097 3864 c-4 -4 -7 -41 -7 -83 0 -63 -5 -86 -29 -136 -26 -53 -29
-69 -26 -136 3 -88 20 -133 52 -137 25 -4 23 -6 69 113 30 75 30 82 20 195
-10 101 -15 130 -29 160 -12 25 -37 37 -50 24z"/>
<path d="M7914 3742 c-20 -13 -21 -37 -4 -72 24 -48 40 -129 40 -203 0 -98 42
-140 76 -75 13 26 15 49 11 117 -12 162 -68 270 -123 233z"/>
<path d="M7616 3699 c-13 -19 -13 -25 -1 -49 8 -15 23 -60 34 -100 23 -81 35
-100 62 -100 50 0 46 96 -10 211 -30 61 -59 75 -85 38z"/>
<path d="M1548 3699 c-22 -12 -24 -62 -4 -78 20 -17 67 -10 80 11 16 27 -4 72
-34 75 -14 2 -33 -2 -42 -8z"/>
<path d="M1701 3656 c-7 -8 -11 -37 -9 -67 4 -63 25 -84 57 -55 27 25 27 75 0
110 -23 30 -32 32 -48 12z"/>
<path d="M2156 3611 c-23 -26 -23 -118 0 -166 9 -19 32 -47 51 -62 29 -24 68
-77 62 -85 -1 -2 1 -20 5 -40 9 -47 54 -87 132 -118 32 -13 63 -27 69 -32 16
-14 54 -9 64 10 14 27 1 41 -85 86 -81 43 -80 42 -103 132 -6 22 -27 62 -48
88 -31 40 -37 57 -41 109 -3 36 -11 69 -20 80 -20 23 -65 22 -86 -2z"/>
<path d="M2052 3601 c-10 -6 -11 -17 -5 -42 13 -48 38 -45 38 5 0 40 -10 52
-33 37z"/>
<path d="M1424 3516 c-12 -31 3 -50 63 -81 34 -17 80 -48 102 -67 62 -57 88
-71 116 -64 29 7 34 39 10 74 -24 33 -133 108 -193 131 -62 25 -91 26 -98 7z"/>
<path d="M8125 3520 c-3 -5 -4 -14 0 -19 6 -10 19 -77 30 -151 9 -57 21 -80
45 -80 38 0 36 67 -5 158 -30 65 -61 106 -70 92z"/>
<path d="M1912 3449 c6 -109 46 -175 84 -137 15 15 14 20 -11 74 -15 32 -33
73 -39 93 -7 19 -18 37 -25 39 -10 3 -12 -12 -9 -69z"/>
<path d="M6925 3488 c-11 -28 -11 -36 0 -53 25 -38 78 -6 69 43 -7 36 -12 42
-35 42 -13 0 -25 -11 -34 -32z"/>
<path d="M2053 3474 c-8 -21 23 -84 41 -84 16 0 33 20 30 38 -1 6 -2 16 -3 21
-2 16 -31 41 -47 41 -8 0 -17 -7 -21 -16z"/>
<path d="M7497 3418 c-9 -7 -15 -22 -12 -33 2 -11 4 -30 4 -42 1 -33 33 -29
54 7 21 35 21 39 0 63 -19 20 -24 21 -46 5z"/>
<path d="M7669 3384 c-16 -20 -22 -203 -7 -245 8 -23 16 -29 39 -29 31 0 54
29 45 58 -3 9 -7 49 -11 87 -11 130 -32 170 -66 129z"/>
<path d="M1416 3335 c-8 -9 -12 -23 -9 -33 9 -27 55 -72 73 -72 9 0 25 -9 35
-20 21 -24 133 -93 154 -97 16 -2 61 41 61 60 0 31 -115 101 -182 109 -15 2
-38 13 -50 25 -41 37 -65 45 -82 28z"/>
<path d="M6881 3331 c-6 -10 -13 -47 -17 -82 -3 -35 -8 -67 -10 -71 -3 -4 5
-17 16 -28 21 -21 23 -21 41 -4 16 15 42 71 63 141 15 47 -70 87 -93 44z"/>
<path d="M6576 3289 c-48 -72 -18 -143 38 -90 27 25 51 92 43 115 -12 31 -53
18 -81 -25z"/>
<path d="M8010 3300 c-9 -6 -10 -23 -4 -71 4 -35 6 -88 5 -117 -3 -56 9 -82
40 -82 25 0 50 40 44 70 -3 14 -8 41 -11 60 -10 62 -36 139 -49 143 -6 3 -18
2 -25 -3z"/>
<path d="M7042 3288 c-5 -7 -12 -38 -16 -68 -3 -30 -16 -81 -27 -112 -22 -60
-20 -102 5 -111 26 -10 63 30 76 80 12 49 15 171 5 204 -7 22 -28 25 -43 7z"/>
<path d="M7496 3261 c-22 -25 -20 -43 15 -148 25 -73 36 -93 50 -93 18 0 23
13 21 50 -5 90 -14 165 -22 180 -14 25 -46 31 -64 11z"/>
<path d="M1772 3258 c-7 -7 -12 -22 -12 -35 0 -17 21 -37 93 -85 50 -34 164
-116 252 -183 257 -193 280 -206 585 -328 270 -107 279 -110 600 -182 41 -9
122 -30 180 -47 172 -49 276 -68 395 -73 122 -4 139 1 150 45 12 49 -11 62
-118 66 -120 3 -217 21 -427 79 -91 25 -212 54 -270 66 -58 12 -141 32 -185
46 -91 29 -456 173 -526 209 -72 36 -172 107 -318 228 -75 61 -153 124 -175
140 -74 56 -194 84 -224 54z"/>
<path d="M7840 3221 c-21 -40 0 -171 27 -171 29 1 42 31 44 109 2 42 -2 57
-16 67 -26 19 -42 17 -55 -5z"/>
<path d="M8186 3212 c-5 -9 -1 -109 9 -207 2 -27 7 -81 10 -120 6 -82 21 -104
62 -89 27 9 28 13 27 74 0 123 -30 262 -67 317 -23 34 -32 39 -41 25z"/>
<path d="M6364 3176 c-21 -9 -34 -24 -38 -42 -12 -45 -80 -187 -122 -251 -34
-52 -159 -220 -174 -233 -3 -3 -40 -49 -83 -102 -72 -89 -164 -184 -292 -302
-47 -44 -140 -95 -322 -176 -65 -30 -85 -48 -88 -82 0 -8 -15 -23 -23 -24 -4
0 -25 -8 -47 -18 -115 -51 -234 -77 -500 -111 -27 -3 -97 -17 -155 -31 -58
-14 -125 -28 -150 -31 -25 -3 -63 -8 -85 -12 -72 -12 -316 -3 -406 14 -101 20
-141 25 -149 20 -17 -10 -4 -21 64 -54 83 -40 187 -68 324 -87 39 -5 320 -5
367 1 22 2 65 7 95 11 30 3 63 8 74 10 11 2 38 6 60 10 140 20 469 114 539
153 18 9 36 27 42 39 5 12 18 22 29 22 10 0 33 10 50 23 17 13 74 50 126 82
119 75 182 127 295 246 49 52 146 150 216 219 136 135 154 158 218 267 23 40
63 101 90 135 145 190 170 254 115 297 -31 24 -30 24 -70 7z"/>
<path d="M7176 3141 c-21 -23 -42 -103 -51 -191 -7 -72 -15 -109 -51 -220 -25
-76 -33 -148 -21 -185 5 -15 1 -23 -15 -30 -16 -7 -32 -36 -56 -100 -114 -312
-315 -617 -489 -744 -134 -97 -372 -200 -594 -256 -35 -9 -71 -18 -79 -21 -10
-2 -16 3 -17 14 -1 12 6 18 23 20 83 7 280 97 423 194 285 192 479 409 580
647 20 47 21 55 8 68 -13 13 -19 11 -50 -17 -20 -17 -51 -57 -68 -88 -90 -159
-165 -240 -349 -378 -221 -165 -299 -211 -471 -274 -84 -31 -169 -48 -169 -33
0 9 79 53 95 53 10 0 128 60 135 69 3 3 28 24 55 46 28 22 66 55 87 73 56 51
95 79 198 139 193 114 254 180 283 308 16 75 16 89 -4 93 -10 2 -29 -18 -52
-56 -59 -95 -168 -198 -307 -289 -136 -89 -171 -114 -239 -170 -38 -31 -95
-65 -140 -83 -138 -56 -156 -65 -188 -93 -20 -18 -38 -47 -49 -82 -16 -51 -19
-56 -58 -66 -166 -42 -371 -123 -499 -196 -92 -53 -133 -60 -196 -31 -36 16
-65 21 -136 20 -107 -1 -132 -6 -156 -28 -26 -23 -24 -60 5 -89 20 -20 32 -23
77 -21 30 2 90 13 134 24 83 22 152 28 195 18 120 -28 152 -20 290 78 96 68
172 102 245 111 108 13 127 16 173 30 26 8 52 15 58 15 12 0 27 -39 16 -41 -4
0 -14 -2 -22 -4 -8 -2 -33 -6 -55 -10 -51 -8 -116 -38 -179 -82 -60 -43 -105
-59 -187 -68 -109 -12 -119 -16 -119 -45 0 -25 12 -31 73 -35 64 -4 139 8 226
35 92 28 104 30 209 36 88 5 92 5 92 -15 0 -12 -1 -21 -3 -21 -1 0 -34 -9 -72
-21 -39 -11 -81 -22 -95 -24 -14 -2 -36 -7 -50 -10 -178 -37 -465 -52 -610
-30 -76 11 -176 11 -316 0 -94 -7 -104 -6 -131 13 -58 41 -202 59 -246 29 -18
-12 -31 -11 -101 5 -45 11 -119 30 -166 44 -47 14 -92 27 -100 29 -8 2 -53 17
-100 34 -102 36 -110 38 -277 56 -47 6 -72 16 -206 88 -75 41 -144 50 -167 22
-30 -36 41 -114 115 -129 17 -3 68 -8 115 -11 81 -4 91 -7 214 -71 71 -36 138
-77 150 -90 38 -42 297 -102 526 -121 52 -4 295 -7 540 -7 245 1 429 -1 410
-5 -42 -7 -63 -42 -51 -86 9 -37 46 -58 136 -81 39 -10 75 -22 80 -27 7 -7 7
-8 0 -4 -5 3 -55 8 -110 12 -101 6 -148 11 -197 21 -19 4 -33 -1 -47 -15 -25
-25 -26 -31 -7 -56 11 -16 28 -20 83 -21 53 -2 104 -14 228 -56 l160 -53 178
0 c156 1 177 -1 171 -15 -3 -8 -9 -23 -11 -32 -3 -10 -9 -18 -13 -18 -5 0 -20
-13 -35 -28 -23 -25 -34 -28 -74 -26 -26 1 -70 12 -96 24 -124 56 -233 74
-267 43 -17 -15 -18 -15 -18 4 0 42 -76 87 -120 71 -31 -11 -40 -25 -40 -64 0
-22 7 -34 24 -44 33 -17 115 -18 125 -1 6 9 9 4 9 -15 0 -19 10 -37 32 -57 31
-27 37 -29 101 -25 73 5 73 5 219 -73 87 -47 136 -60 248 -66 92 -4 95 -4 123
23 l28 27 -22 23 c-13 13 -35 28 -50 33 -19 7 -27 18 -27 35 0 24 0 24 43 9
26 -9 64 -13 101 -11 48 4 63 9 82 31 20 23 21 30 12 67 -16 62 6 73 113 58
51 -8 101 15 97 44 -3 20 -8 23 -40 20 -21 -2 -63 4 -94 13 -31 9 -88 18 -128
20 -64 3 -188 35 -209 55 -10 9 38 26 98 35 58 9 118 34 135 55 12 14 34 20
95 24 44 3 73 3 65 0 -53 -22 -63 -62 -26 -99 23 -23 30 -24 118 -20 157 7
352 23 371 30 45 18 -6 68 -86 84 -29 5 -90 12 -137 15 -47 3 -87 5 -90 6 -3
0 36 14 85 30 102 34 160 37 228 14 26 -9 54 -13 62 -10 22 8 18 40 -7 63 -81
74 -197 83 -428 35 -118 -25 -159 -32 -234 -38 -33 -3 -63 -7 -68 -10 -4 -3
-8 -2 -8 3 0 6 77 39 135 57 16 5 42 16 155 63 81 34 114 43 143 40 77 -9 168
26 353 136 60 35 128 74 152 86 l43 22 -11 -21 c-6 -11 -8 -29 -5 -39 7 -23
73 -51 119 -51 37 0 68 23 60 43 -8 22 -70 57 -115 66 l-44 8 59 17 c74 23
110 16 158 -31 34 -33 40 -35 63 -25 68 31 -12 146 -117 169 l-36 8 54 89 c35
58 54 81 54 67 0 -58 24 -114 72 -166 56 -61 83 -74 106 -52 13 13 13 20 2 47
-7 18 -14 46 -16 63 -1 18 -11 68 -22 112 -12 44 -23 97 -27 118 -3 21 -12 66
-19 100 -8 34 -17 74 -21 90 -4 21 -11 27 -31 27 -13 0 -27 -7 -30 -15 -3 -8
-14 -17 -24 -20 -22 -7 -27 -18 -51 -116 -36 -152 -105 -266 -202 -337 -133
-98 -173 -101 -79 -5 107 110 194 286 208 424 5 54 4 68 -11 83 -20 19 -18 72
8 211 8 44 17 101 20 126 7 60 21 113 58 218 35 99 56 220 54 312 -2 77 -8 89
-40 89 -30 0 -33 -6 -40 -66 -8 -63 -30 -162 -56 -244 -54 -169 -66 -224 -75
-340 -9 -120 -30 -175 -115 -313 -95 -154 -169 -256 -227 -312 -57 -55 -155
-113 -224 -132 -58 -16 -76 -36 -69 -73 3 -20 30 -40 54 -40 30 0 148 50 203
86 82 54 170 140 244 239 39 51 70 97 70 102 0 4 9 19 20 33 l20 25 0 -25 c0
-53 -46 -171 -93 -240 -72 -104 -195 -190 -296 -206 -47 -7 -66 -34 -49 -67 8
-15 17 -17 61 -11 29 4 59 6 67 5 8 -1 23 -1 33 -2 27 -1 21 -5 -40 -29 -67
-27 -95 -39 -258 -111 -66 -29 -183 -78 -260 -109 l-140 -57 -48 16 -48 15
188 61 c103 34 221 77 261 96 40 20 75 32 78 27 9 -14 41 -9 48 7 8 22 -3 42
-27 50 -47 14 -222 14 -292 -1 -96 -20 -308 -89 -358 -116 -10 -5 -26 -7 -35
-3 -20 8 181 116 345 185 181 77 235 112 345 224 182 184 321 373 417 571 59
121 104 250 98 281 -2 14 2 25 10 28 26 10 54 93 58 173 3 43 17 137 31 208
30 144 34 209 15 243 -14 27 -23 28 -45 3z m-1376 -2131 c0 -5 -11 -17 -25
-26 -15 -10 -25 -26 -25 -39 l0 -23 -132 3 c-73 2 -167 9 -208 15 -73 10 -150
28 -150 34 0 1 62 3 138 2 151 0 249 8 332 29 70 17 70 17 70 5z m-285 -245
c44 -4 118 -7 165 -6 87 1 159 -11 130 -22 -54 -21 -144 -36 -209 -34 -68 2
-82 6 -129 36 -29 18 -52 35 -52 38 0 2 3 2 8 0 4 -3 43 -8 87 -12z m620 -185
c-3 -5 -14 -10 -23 -10 -15 0 -15 2 -2 10 20 13 33 13 25 0z"/>
<path d="M6518 3104 c-14 -31 -1 -57 31 -62 28 -4 51 14 51 42 0 50 -62 65
-82 20z"/>
<path d="M1560 3080 c-6 -4 2 -17 17 -31 74 -67 130 -76 148 -25 15 44 -19 67
-96 64 -33 -1 -64 -5 -69 -8z"/>
<path d="M7393 3068 c-11 -18 -12 -26 -18 -203 -13 -371 -22 -474 -60 -733
-15 -99 -13 -117 13 -127 19 -7 41 13 48 46 18 80 54 283 59 332 4 32 8 66 10
75 8 42 18 248 17 363 0 154 -9 241 -25 251 -18 11 -35 10 -44 -4z"/>
<path d="M1397 3063 c-16 -15 -4 -33 45 -70 29 -21 122 -96 208 -167 341 -284
475 -367 707 -441 67 -21 215 -59 278 -71 11 -2 43 -8 71 -14 28 -6 64 -13 80
-16 70 -12 176 -36 269 -59 55 -14 105 -27 110 -28 6 -1 50 -16 97 -32 84 -29
87 -29 107 -11 11 10 19 23 18 30 -3 14 77 15 148 1 59 -12 85 -5 85 24 0 25
-98 92 -212 146 -82 38 -285 107 -357 120 -14 3 -39 7 -56 10 -16 4 -55 12
-85 20 -30 8 -66 16 -80 18 -227 41 -456 152 -645 312 -127 108 -262 185 -325
185 -23 0 -50 -26 -50 -49 0 -14 97 -82 144 -100 6 -2 90 -61 186 -130 96 -70
186 -133 200 -142 78 -50 186 -100 265 -124 175 -52 246 -76 308 -106 63 -29
61 -37 -3 -20 -19 6 -53 12 -75 16 -280 41 -557 148 -667 258 -47 47 -155 114
-309 192 -85 43 -191 104 -236 136 -112 80 -210 128 -226 112z"/>
<path d="M6808 2988 c-61 -122 -80 -192 -56 -216 33 -33 72 8 93 100 23 98 23
99 27 144 2 29 -1 40 -12 42 -11 2 -28 -21 -52 -70z"/>
<path d="M7675 3014 c-14 -15 -12 -69 5 -133 9 -35 41 -55 63 -38 23 17 26 53
11 111 -18 69 -47 91 -79 60z"/>
<path d="M6500 3002 c-27 -8 -48 -33 -76 -86 -68 -129 -401 -632 -450 -677
-61 -57 -147 -110 -314 -194 -169 -84 -221 -117 -292 -183 -61 -57 -64 -93
-10 -121 26 -14 30 -12 90 46 54 51 159 117 302 188 247 123 299 167 425 354
47 69 111 162 141 206 31 44 69 107 86 139 27 54 75 134 88 146 3 3 20 24 38
48 50 64 53 109 9 129 -12 5 -29 8 -37 5z"/>
<path d="M7854 2953 c-17 -39 -21 -130 -11 -228 4 -33 9 -87 12 -120 7 -79 20
-111 70 -167 29 -32 49 -68 64 -117 23 -72 34 -85 64 -69 21 11 21 38 1 103
-9 28 -16 86 -18 130 -1 69 -6 89 -35 145 -46 91 -60 133 -67 204 -13 142 -17
156 -46 156 -13 0 -24 -12 -34 -37z"/>
<path d="M8025 2969 c-20 -32 41 -456 70 -488 17 -17 63 -7 72 16 3 9 -2 37
-11 62 -32 83 -40 128 -52 291 -8 107 -16 130 -48 130 -14 0 -28 -5 -31 -11z"/>
<path d="M6025 2932 c-5 -4 -31 -39 -56 -78 -28 -43 -87 -107 -150 -165 -145
-133 -196 -184 -269 -267 -78 -90 -121 -121 -239 -168 -64 -25 -98 -45 -114
-66 -58 -77 -70 -85 -208 -128 -125 -39 -179 -63 -221 -100 -25 -20 -22 -40 5
-42 110 -7 188 11 359 86 57 24 139 58 183 75 101 39 118 51 158 114 19 30 49
60 69 71 22 12 51 43 73 78 45 70 80 102 211 195 111 79 190 158 253 254 45
69 49 93 25 127 -15 22 -58 30 -79 14z"/>
<path d="M6986 2924 c-9 -8 -16 -26 -16 -40 0 -31 2 -22 -24 -116 -13 -46 -39
-114 -58 -153 -46 -90 -53 -119 -32 -139 18 -19 20 -19 44 -6 34 18 60 67 86
165 34 127 41 161 48 238 4 39 1 49 -14 57 -14 7 -23 6 -34 -6z"/>
<path d="M7545 2880 c-11 -17 -20 -180 -14 -245 3 -37 -28 -303 -45 -388 -7
-34 -11 -78 -9 -97 2 -19 6 -69 7 -111 4 -92 5 -95 72 -233 29 -61 56 -123 59
-138 9 -35 43 -47 62 -22 23 31 10 97 -44 214 -17 35 -31 140 -19 140 3 0 13
-17 21 -37 26 -62 72 -101 144 -123 48 -15 67 -17 77 -9 23 19 16 41 -21 75
l-35 32 0 113 c1 125 -2 147 -25 196 -31 65 -111 76 -156 23 l-26 -31 4 51 c2
28 13 90 24 138 11 48 22 96 24 106 4 15 5 104 4 250 0 10 -9 38 -21 62 -17
37 -25 44 -49 44 -15 0 -31 -4 -34 -10z"/>
<path d="M1383 2828 c-20 -25 -21 -57 -2 -87 10 -17 22 -31 26 -32 31 -3 48
-11 78 -37 18 -17 42 -33 53 -36 38 -12 91 24 87 59 -5 46 -47 85 -91 85 -10
0 -29 11 -43 24 -32 30 -93 43 -108 24z"/>
<path d="M7702 2798 c-8 -11 -10 -51 -3 -110 1 -5 12 -8 26 -8 35 0 52 38 39
88 -10 40 -41 55 -62 30z"/>
<path d="M6740 2668 c-31 -33 -80 -109 -80 -124 0 -14 27 -44 39 -44 20 0 60
54 72 98 12 43 14 54 10 82 -2 17 -19 11 -41 -12z"/>
<path d="M1630 2652 c-14 -11 -22 -30 -22 -51 -2 -64 81 -112 187 -108 68 3
70 23 8 86 -81 82 -135 104 -173 73z"/>
<path d="M7718 2583 c-23 -27 -47 -127 -36 -146 13 -25 55 -21 73 6 19 30 23
120 6 141 -17 20 -24 20 -43 -1z"/>
<path d="M6452 2548 c-20 -10 -31 -29 -91 -158 -12 -26 -54 -79 -101 -124 -81
-80 -92 -102 -64 -130 42 -43 120 1 193 109 44 63 138 259 135 280 -5 33 -32
42 -72 23z"/>
<path d="M1433 2519 c-26 -9 -38 -42 -24 -67 14 -27 110 -74 226 -112 55 -18
133 -54 175 -79 41 -26 125 -69 185 -95 61 -27 187 -84 280 -127 255 -116 344
-149 473 -173 91 -16 106 -15 110 10 4 30 -95 78 -412 201 -168 65 -543 243
-635 302 -27 17 -90 42 -146 56 -55 15 -116 37 -135 49 -60 39 -74 44 -97 35z"/>
<path d="M1870 2515 c-26 -31 4 -58 156 -142 171 -94 179 -97 294 -124 47 -11
119 -33 160 -48 41 -16 91 -31 110 -35 19 -3 45 -8 57 -10 12 -3 57 -7 100
-11 43 -3 103 -10 133 -15 30 -5 71 -12 90 -15 19 -3 53 -11 75 -16 96 -26
215 -46 302 -52 56 -4 75 -2 84 9 10 12 9 18 -2 29 -13 13 -206 68 -282 80
-18 3 -43 7 -57 10 -56 10 -158 23 -250 30 -45 4 -89 12 -318 59 -127 27 -188
52 -351 146 -70 40 -257 120 -282 120 -4 0 -12 -7 -19 -15z"/>
<path d="M4930 2451 c-69 -22 -145 -61 -233 -118 -243 -158 -394 -204 -751
-227 -33 -2 -53 -9 -63 -21 -15 -22 -16 -25 -3 -45 16 -26 237 -12 429 26 150
31 242 71 463 205 81 49 180 102 219 118 85 34 97 44 79 66 -16 20 -71 18
-140 -4z"/>
<path d="M5225 2424 c-21 -14 -54 -41 -74 -60 -34 -33 -83 -59 -261 -141 -134
-62 -403 -200 -435 -223 -15 -11 -125 -50 -125 -45 0 2 -10 1 -23 -4 -33 -13
-122 -22 -337 -37 -99 -6 -123 -15 -102 -36 15 -15 391 -18 562 -5 130 10 172
29 293 130 123 104 300 199 415 222 49 10 192 141 192 175 0 55 -45 65 -105
24z"/>
<path d="M7792 2418 c-7 -7 -7 -19 0 -37 5 -14 14 -50 19 -80 11 -72 31 -101
70 -101 42 0 51 30 28 98 -10 29 -26 66 -35 82 -20 33 -66 54 -82 38z"/>
<path d="M1380 2270 c-50 -50 -43 -53 435 -240 88 -34 203 -84 255 -110 52
-26 133 -61 180 -78 47 -16 173 -61 280 -99 241 -87 246 -88 275 -69 21 14 29
56 13 72 -3 3 -42 14 -87 24 -177 43 -307 94 -621 248 -181 88 -251 116 -455
183 -55 18 -131 45 -169 61 -82 33 -81 33 -106 8z"/>
<path d="M3847 2284 c-1 -1 -24 -3 -52 -5 -57 -3 -100 -20 -109 -45 -9 -23 20
-64 47 -66 81 -6 203 24 236 57 14 13 13 17 -1 32 -14 13 -112 36 -121 27z"/>
<path d="M3595 2140 c-32 -12 -48 -37 -41 -65 8 -30 28 -41 85 -48 34 -4 48 0
63 15 11 11 22 17 26 14 3 -3 2 -6 -3 -6 -4 0 0 -9 10 -20 32 -35 95 -16 95
29 0 30 -36 42 -77 25 -18 -7 -32 -10 -32 -6 4 24 -3 43 -20 51 -26 15 -82 20
-106 11z"/>
<path d="M2697 2103 c-26 -30 -21 -60 12 -77 28 -15 44 -19 146 -36 28 -4 89
-24 135 -43 53 -22 110 -37 153 -41 37 -3 110 -20 163 -37 107 -34 120 -37
184 -45 37 -5 48 -3 64 15 24 26 24 71 0 88 -10 7 -36 13 -58 14 -105 2 -212
26 -441 99 -245 79 -330 94 -358 63z"/>
<path d="M6093 2102 c-11 -10 -24 -27 -28 -39 -4 -16 -36 -37 -111 -74 -59
-29 -112 -62 -121 -75 -20 -32 -10 -72 23 -84 35 -14 77 6 140 64 28 26 80 64
115 84 54 31 64 42 67 67 5 56 -44 89 -85 57z"/>
<path d="M7886 2065 c-8 -21 22 -92 41 -99 26 -10 53 4 59 31 12 47 -83 111
-100 68z"/>
<path d="M1416 2021 c-8 -13 23 -62 57 -92 54 -47 122 -79 180 -84 30 -3 74
-12 97 -20 58 -21 77 -19 95 8 26 40 4 81 -58 106 -29 12 -77 35 -108 51 -49
26 -69 30 -158 34 -55 2 -103 1 -105 -3z"/>
<path d="M3701 1944 c-22 -50 25 -74 55 -29 13 20 14 28 4 40 -19 23 -45 18
-59 -11z"/>
<path d="M2992 1871 c-27 -17 -9 -55 38 -80 25 -13 74 -43 110 -66 69 -46 103
-55 236 -60 93 -4 124 3 124 25 0 18 -26 30 -65 30 -11 0 -79 29 -150 64 -72
35 -146 68 -165 74 -53 17 -113 23 -128 13z"/>
<path d="M3612 1854 c-51 -35 -7 -103 44 -69 30 19 29 51 -1 71 -18 12 -24 11
-43 -2z"/>
<path d="M5662 1831 c-95 -40 -187 -103 -225 -154 -37 -50 -81 -91 -116 -110
-27 -14 -31 -20 -22 -31 14 -16 45 -13 99 10 19 8 43 12 53 9 33 -11 92 25
170 105 61 62 88 82 121 90 74 19 101 54 73 96 -21 32 -44 30 -153 -15z"/>
<path d="M2001 1784 c-12 -15 -19 -34 -16 -42 3 -7 5 -18 5 -23 0 -34 301
-136 730 -249 129 -34 255 -68 279 -76 60 -19 78 -18 92 7 17 33 -3 66 -48 78
-21 6 -44 11 -50 11 -13 0 -55 20 -206 98 -82 42 -112 49 -247 57 -121 8 -171
21 -242 68 -90 58 -160 88 -221 94 -50 5 -55 3 -76 -23z"/>
<path d="M1610 1750 c-63 -17 32 -122 123 -137 43 -7 77 22 77 67 0 43 -34 70
-89 71 -25 0 -55 2 -66 3 -11 1 -31 -1 -45 -4z"/>
<path d="M2918 1726 c-17 -9 -23 -20 -23 -46 0 -33 3 -36 45 -49 25 -8 106
-38 180 -67 74 -29 191 -64 260 -79 69 -16 166 -43 215 -62 170 -65 258 -73
342 -32 43 21 50 32 34 58 -7 11 -17 12 -53 3 -65 -17 -142 -7 -253 31 -55 19
-143 42 -195 51 -126 22 -168 36 -275 97 -163 92 -234 116 -277 95z"/>
<path d="M4985 1694 c-51 -19 -235 -61 -300 -68 -27 -4 -61 -9 -75 -12 -14 -4
-146 -7 -295 -8 l-270 -1 -3 -28 c-3 -24 2 -30 40 -47 154 -68 382 -70 703 -6
67 13 256 70 286 86 13 7 19 21 19 43 0 58 -29 69 -105 41z"/>
<path d="M3536 1675 c-35 -35 -9 -75 48 -75 31 0 68 34 60 54 -11 30 -85 44
-108 21z"/>
<path d="M3716 1628 c-20 -29 -5 -55 47 -81 50 -25 160 -26 211 -2 36 17 36
18 19 37 -22 25 -45 34 -136 53 -98 20 -123 19 -141 -7z"/>
<path d="M1795 1561 c-39 -10 -75 -29 -75 -40 0 -5 12 -14 28 -19 77 -29 179
-64 192 -68 8 -2 40 -10 70 -19 30 -8 78 -20 105 -26 101 -21 137 -27 200 -35
70 -8 133 -29 265 -87 111 -49 119 -51 220 -54 125 -4 159 -12 311 -74 64 -25
141 -52 170 -59 30 -7 95 -32 144 -56 187 -90 589 -179 825 -184 58 -1 116 -3
130 -5 80 -9 315 -24 486 -30 169 -6 181 0 165 87 -4 21 -98 30 -366 34 -275
3 -449 10 -505 18 -14 2 -43 6 -65 9 -117 15 -148 21 -233 43 -95 23 -154 48
-249 103 -74 42 -130 59 -236 71 -140 16 -217 38 -492 140 -27 10 -149 44
-270 75 -121 31 -258 70 -305 86 -47 17 -93 32 -102 34 -9 2 -25 8 -35 13 -67
35 -302 62 -378 43z"/>
<path d="M5090 1499 c-52 -13 -72 -17 -104 -24 -15 -3 -57 -12 -92 -21 -35 -8
-97 -17 -137 -19 -131 -9 -176 -16 -197 -33 -26 -21 -18 -49 18 -63 13 -5 68
-10 121 -10 103 0 210 22 370 78 90 31 113 51 95 81 -13 21 -28 23 -74 11z"/>
<path d="M4041 1451 c-12 -12 -21 -29 -21 -39 0 -28 29 -62 54 -62 48 0 87 71
53 98 -27 23 -65 24 -86 3z"/>
<path d="M4234 1423 c-6 -4 -14 -18 -18 -30 -12 -37 31 -69 97 -72 80 -3 103
38 46 82 -28 20 -107 33 -125 20z"/>
<path d="M3885 1336 c-22 -33 -13 -70 22 -93 22 -15 51 -18 153 -19 69 -1 144
-7 167 -13 41 -11 204 -14 230 -4 17 7 17 42 1 47 -7 2 -51 16 -98 30 -50 16
-120 28 -169 31 -46 3 -109 11 -140 19 -31 8 -77 17 -103 21 -42 6 -48 5 -63
-19z"/>
<path d="M1992 1293 c-25 -48 30 -94 118 -99 63 -4 323 -74 455 -122 78 -29
214 -70 261 -78 36 -6 194 -64 238 -86 38 -20 39 -20 65 0 48 35 41 89 -16
116 -91 44 -168 68 -308 97 -82 16 -166 35 -185 41 -19 6 -65 10 -103 10 -65
-2 -120 14 -129 36 -1 4 -29 28 -61 51 -60 46 -85 51 -202 41 -22 -2 -59 0
-82 4 -35 6 -43 4 -51 -11z"/>
<path d="M6969 1206 c-2 -2 -22 -7 -44 -10 -123 -19 -163 -42 -151 -91 6 -22
57 -60 67 -51 2 2 20 7 39 10 48 7 159 52 182 72 21 20 23 45 6 62 -11 11 -89
17 -99 8z"/>
<path d="M2370 1010 c-23 -23 -25 -47 -7 -71 24 -32 208 -89 702 -219 171 -45
373 -102 451 -126 170 -53 273 -78 364 -90 61 -7 217 -7 230 1 21 13 8 31 -53
72 -89 60 -125 73 -193 68 -40 -2 -80 3 -124 17 -85 26 -95 28 -160 39 -128
22 -169 34 -254 74 -85 41 -200 71 -336 90 -25 3 -88 19 -140 35 -52 16 -148
43 -213 59 -64 17 -143 40 -174 51 -70 25 -68 25 -93 0z"/>
<path d="M3184 985 c-13 -21 -15 -31 -6 -50 27 -58 197 -137 324 -150 121 -13
171 -25 300 -74 161 -60 285 -86 316 -67 7 4 12 20 12 36 0 23 -9 35 -37 55
-42 28 -139 61 -205 70 -43 5 -68 9 -121 21 -15 3 -83 28 -150 55 -70 29 -151
54 -191 59 -71 11 -127 32 -147 56 -20 24 -76 18 -95 -11z"/>
<path d="M4362 777 c-21 -24 -2 -46 52 -62 28 -8 134 -33 236 -55 199 -42 260
-58 330 -85 106 -39 108 -40 130 -20 23 21 26 48 8 63 -7 5 -49 22 -92 37 -43
14 -96 38 -118 51 -38 24 -77 43 -108 51 -16 5 -95 10 -275 17 -60 3 -119 8
-131 11 -12 4 -25 1 -32 -8z"/>
<path d="M2650 713 c-58 -41 11 -105 133 -124 34 -6 100 -28 147 -49 139 -64
257 -93 351 -88 63 4 82 9 94 24 34 46 15 61 -106 83 -119 22 -190 44 -306 95
-123 55 -277 84 -313 59z"/>
<path d="M4413 613 c-19 -7 -16 -50 3 -61 38 -21 73 12 54 49 -10 18 -31 23
-57 12z"/>
<path d="M4540 555 c-24 -29 1 -48 93 -72 48 -12 221 -67 386 -123 176 -58
330 -104 373 -110 80 -11 295 -20 316 -12 69 25 -147 128 -328 156 -19 3 -53
8 -75 11 -102 16 -181 37 -278 74 -94 36 -203 61 -327 74 -25 3 -68 9 -95 12
-41 6 -54 4 -65 -10z"/>
<path d="M3480 482 c-38 -13 -41 -67 -6 -83 47 -22 133 11 120 45 -9 24 -84
48 -114 38z"/>
<path d="M4313 463 c-14 -21 -14 -25 1 -48 18 -27 45 -41 99 -50 18 -4 52 -11
77 -16 58 -13 118 -13 152 0 89 34 -113 145 -255 140 -49 -2 -61 -6 -74 -26z"/>
<path d="M3921 461 c-39 -39 -21 -83 42 -99 21 -6 49 -8 63 -6 18 3 35 -4 60
-26 42 -36 48 -37 80 -5 20 20 23 29 14 45 -14 26 -39 38 -69 34 -16 -3 -35 6
-62 31 -22 19 -48 35 -58 35 -11 0 -26 3 -34 6 -9 3 -25 -4 -36 -15z"/>
<path d="M3675 424 c-19 -20 -19 -48 1 -65 19 -16 72 -19 102 -6 27 13 30 52
3 66 -34 18 -90 21 -106 5z"/>
<path d="M4750 361 c-17 -12 -20 -29 -8 -52 8 -18 140 -55 157 -44 6 3 11 17
11 30 0 19 -10 28 -47 45 -61 27 -94 33 -113 21z"/>
<path d="M4286 339 c-46 -36 -31 -86 36 -115 32 -13 73 -18 158 -19 129 -2
140 0 140 25 0 22 -37 37 -108 45 -67 7 -110 25 -141 59 -29 31 -50 33 -85 5z"/>
<path d="M4658 228 c-9 -7 -18 -20 -19 -28 -3 -18 10 -60 19 -61 4 -1 19 -3
34 -4 15 -2 42 -8 60 -13 49 -13 80 1 76 35 -2 22 -13 32 -48 49 -64 30 -102
37 -122 22z"/>
</g>
</svg>
